<?xml version="1.0" encoding="UTF-8" standalone="no"?>
<!DOCTYPE svg PUBLIC "-//W3C//DTD SVG 1.1//EN"
 "http://www.w3.org/Graphics/SVG/1.1/DTD/svg11.dtd">
<!-- Generated by graphviz version 2.43.0 (0)
 -->
<!-- Title: DFA Pages: 1 -->
<svg width="2165pt" height="2807pt"
 viewBox="0.00 0.00 2164.69 2807.34" xmlns="http://www.w3.org/2000/svg" xmlns:xlink="http://www.w3.org/1999/xlink">
<g id="graph0" class="graph" transform="scale(1 1) rotate(0) translate(4 2803.34)">
<title>DFA</title>
<polygon fill="white" stroke="transparent" points="-4,4 -4,-2803.34 2160.69,-2803.34 2160.69,4 -4,4"/>
<!-- 2 -->
<g id="node1" class="node">
<title>2</title>
<ellipse fill="none" stroke="black" cx="1946.69" cy="-683.85" rx="32.49" ry="32.49"/>
<ellipse fill="none" stroke="black" cx="1946.69" cy="-683.85" rx="36.49" ry="36.49"/>
<text text-anchor="middle" x="1946.69" y="-680.15" font-family="Times,serif" font-size="14.00">2 (0)</text>
</g>
<!-- 2&#45;&gt;2 -->
<g id="edge2" class="edge">
<title>2&#45;&gt;2</title>
<path fill="none" stroke="black" d="M1945.19,-720.52C1945.27,-730.62 1945.76,-738.34 1946.69,-738.34 1947.26,-738.34 1947.67,-735.33 1947.92,-730.6"/>
<polygon fill="black" stroke="black" points="1951.42,-730.61 1948.18,-720.52 1944.42,-730.43 1951.42,-730.61"/>
<text text-anchor="middle" x="1946.69" y="-742.14" font-family="Times,serif" font-size="14.00">E</text>
</g>
<!-- 2&#45;&gt;2 -->
<g id="edge3" class="edge">
<title>2&#45;&gt;2</title>
<path fill="none" stroke="black" d="M1943.79,-720.4C1943.35,-739.31 1944.31,-756.34 1946.69,-756.34 1948.61,-756.34 1949.61,-745.1 1949.68,-730.74"/>
<polygon fill="black" stroke="black" points="1953.18,-730.37 1949.58,-720.4 1946.18,-730.44 1953.18,-730.37"/>
<text text-anchor="middle" x="1946.69" y="-760.14" font-family="Times,serif" font-size="14.00">g</text>
</g>
<!-- 2&#45;&gt;2 -->
<g id="edge4" class="edge">
<title>2&#45;&gt;2</title>
<path fill="none" stroke="black" d="M1942.69,-720.56C1941.35,-747.43 1942.68,-774.34 1946.69,-774.34 1950.19,-774.34 1951.65,-753.73 1951.06,-730.58"/>
<polygon fill="black" stroke="black" points="1954.55,-730.42 1950.68,-720.56 1947.56,-730.68 1954.55,-730.42"/>
<text text-anchor="middle" x="1946.69" y="-778.14" font-family="Times,serif" font-size="14.00">_</text>
</g>
<!-- 2&#45;&gt;2 -->
<g id="edge5" class="edge">
<title>2&#45;&gt;2</title>
<path fill="none" stroke="black" d="M1941.85,-720.25C1939.31,-754.77 1940.92,-792.34 1946.69,-792.34 1951.89,-792.34 1953.71,-761.75 1952.14,-730.41"/>
<polygon fill="black" stroke="black" points="1955.62,-730.02 1951.52,-720.25 1948.64,-730.45 1955.62,-730.02"/>
<text text-anchor="middle" x="1946.69" y="-796.14" font-family="Times,serif" font-size="14.00">s</text>
</g>
<!-- 2&#45;&gt;2 -->
<g id="edge6" class="edge">
<title>2&#45;&gt;2</title>
<path fill="none" stroke="black" d="M1941.18,-720.11C1937.27,-761.91 1939.11,-810.34 1946.69,-810.34 1953.64,-810.34 1955.76,-769.53 1953.04,-730.5"/>
<polygon fill="black" stroke="black" points="1956.49,-729.79 1952.19,-720.11 1949.51,-730.36 1956.49,-729.79"/>
<text text-anchor="middle" x="1946.69" y="-814.14" font-family="Times,serif" font-size="14.00">C</text>
</g>
<!-- 2&#45;&gt;2 -->
<g id="edge7" class="edge">
<title>2&#45;&gt;2</title>
<path fill="none" stroke="black" d="M1940.61,-720.13C1935.24,-768.96 1937.26,-828.34 1946.69,-828.34 1955.46,-828.34 1957.82,-776.8 1953.76,-730.27"/>
<polygon fill="black" stroke="black" points="1957.22,-729.74 1952.76,-720.13 1950.25,-730.42 1957.22,-729.74"/>
<text text-anchor="middle" x="1946.69" y="-832.14" font-family="Times,serif" font-size="14.00">k</text>
</g>
<!-- 2&#45;&gt;2 -->
<g id="edge8" class="edge">
<title>2&#45;&gt;2</title>
<path fill="none" stroke="black" d="M1940.18,-719.76C1933.2,-775.51 1935.36,-846.34 1946.69,-846.34 1957.34,-846.34 1959.89,-783.57 1954.32,-729.7"/>
<polygon fill="black" stroke="black" points="1957.8,-729.3 1953.19,-719.76 1950.84,-730.1 1957.8,-729.3"/>
<text text-anchor="middle" x="1946.69" y="-850.14" font-family="Times,serif" font-size="14.00">0</text>
</g>
<!-- 2&#45;&gt;2 -->
<g id="edge9" class="edge">
<title>2&#45;&gt;2</title>
<path fill="none" stroke="black" d="M1939.79,-719.73C1931.17,-782.21 1933.47,-864.34 1946.69,-864.34 1959.21,-864.34 1961.93,-790.64 1954.85,-729.76"/>
<polygon fill="black" stroke="black" points="1958.31,-729.21 1953.58,-719.73 1951.37,-730.09 1958.31,-729.21"/>
<text text-anchor="middle" x="1946.69" y="-868.14" font-family="Times,serif" font-size="14.00">Z</text>
</g>
<!-- 2&#45;&gt;2 -->
<g id="edge10" class="edge">
<title>2&#45;&gt;2</title>
<path fill="none" stroke="black" d="M1939.42,-719.91C1929.15,-789.01 1931.57,-882.34 1946.69,-882.34 1961.06,-882.34 1963.96,-797.9 1955.36,-730.19"/>
<polygon fill="black" stroke="black" points="1958.78,-729.34 1953.95,-719.91 1951.84,-730.3 1958.78,-729.34"/>
<text text-anchor="middle" x="1946.69" y="-886.14" font-family="Times,serif" font-size="14.00">y</text>
</g>
<!-- 2&#45;&gt;2 -->
<g id="edge11" class="edge">
<title>2&#45;&gt;2</title>
<path fill="none" stroke="black" d="M1939.14,-719.79C1927.12,-795.44 1929.63,-900.34 1946.69,-900.34 1963,-900.34 1966.01,-804.26 1955.7,-729.69"/>
<polygon fill="black" stroke="black" points="1959.16,-729.16 1954.23,-719.79 1952.23,-730.19 1959.16,-729.16"/>
<text text-anchor="middle" x="1946.69" y="-904.14" font-family="Times,serif" font-size="14.00">x</text>
</g>
<!-- 2&#45;&gt;2 -->
<g id="edge12" class="edge">
<title>2&#45;&gt;2</title>
<path fill="none" stroke="black" d="M1938.9,-719.69C1925.1,-801.84 1927.69,-918.34 1946.69,-918.34 1964.9,-918.34 1968.03,-811.2 1956.09,-729.96"/>
<polygon fill="black" stroke="black" points="1959.49,-729.03 1954.47,-719.69 1952.57,-730.11 1959.49,-729.03"/>
<text text-anchor="middle" x="1946.69" y="-922.14" font-family="Times,serif" font-size="14.00">c</text>
</g>
<!-- 2&#45;&gt;2 -->
<g id="edge13" class="edge">
<title>2&#45;&gt;2</title>
<path fill="none" stroke="black" d="M1938.65,-719.75C1923.08,-808.33 1925.76,-936.34 1946.69,-936.34 1966.84,-936.34 1970.07,-817.65 1956.38,-729.77"/>
<polygon fill="black" stroke="black" points="1959.8,-729.05 1954.72,-719.75 1952.9,-730.19 1959.8,-729.05"/>
<text text-anchor="middle" x="1946.69" y="-940.14" font-family="Times,serif" font-size="14.00">M</text>
</g>
<!-- 2&#45;&gt;2 -->
<g id="edge14" class="edge">
<title>2&#45;&gt;2</title>
<path fill="none" stroke="black" d="M1938.5,-719.46C1921.05,-814.42 1923.78,-954.34 1946.69,-954.34 1968.8,-954.34 1972.11,-823.82 1956.59,-729.34"/>
<polygon fill="black" stroke="black" points="1960.03,-728.71 1954.87,-719.46 1953.13,-729.91 1960.03,-728.71"/>
<text text-anchor="middle" x="1946.69" y="-958.14" font-family="Times,serif" font-size="14.00">I</text>
</g>
<!-- 2&#45;&gt;2 -->
<g id="edge15" class="edge">
<title>2&#45;&gt;2</title>
<path fill="none" stroke="black" d="M1938.31,-719.48C1919.04,-820.79 1921.83,-972.34 1946.69,-972.34 1970.74,-972.34 1974.13,-830.4 1956.85,-729.42"/>
<polygon fill="black" stroke="black" points="1960.28,-728.7 1955.06,-719.48 1953.39,-729.94 1960.28,-728.7"/>
<text text-anchor="middle" x="1946.69" y="-976.14" font-family="Times,serif" font-size="14.00">m</text>
</g>
<!-- 2&#45;&gt;2 -->
<g id="edge16" class="edge">
<title>2&#45;&gt;2</title>
<path fill="none" stroke="black" d="M1938.12,-719.58C1917.02,-827.2 1919.88,-990.34 1946.69,-990.34 1972.68,-990.34 1976.15,-836.93 1957.1,-729.5"/>
<polygon fill="black" stroke="black" points="1960.52,-728.76 1955.25,-719.58 1953.64,-730.05 1960.52,-728.76"/>
<text text-anchor="middle" x="1946.69" y="-994.14" font-family="Times,serif" font-size="14.00">H</text>
</g>
<!-- 2&#45;&gt;2 -->
<g id="edge17" class="edge">
<title>2&#45;&gt;2</title>
<path fill="none" stroke="black" d="M1938,-719.44C1915.01,-833.34 1917.9,-1008.34 1946.69,-1008.34 1974.62,-1008.34 1978.17,-843.45 1957.32,-729.6"/>
<polygon fill="black" stroke="black" points="1960.7,-728.6 1955.37,-719.44 1953.82,-729.92 1960.7,-728.6"/>
<text text-anchor="middle" x="1946.69" y="-1012.14" font-family="Times,serif" font-size="14.00">U</text>
</g>
<!-- 2&#45;&gt;2 -->
<g id="edge18" class="edge">
<title>2&#45;&gt;2</title>
<path fill="none" stroke="black" d="M1937.86,-719.46C1913,-839.63 1915.94,-1026.34 1946.69,-1026.34 1976.59,-1026.34 1980.19,-849.7 1957.49,-729.46"/>
<polygon fill="black" stroke="black" points="1960.89,-728.59 1955.51,-719.46 1954.02,-729.95 1960.89,-728.59"/>
<text text-anchor="middle" x="1946.69" y="-1030.14" font-family="Times,serif" font-size="14.00">r</text>
</g>
<!-- 2&#45;&gt;2 -->
<g id="edge19" class="edge">
<title>2&#45;&gt;2</title>
<path fill="none" stroke="black" d="M1937.77,-719.29C1910.98,-845.68 1913.95,-1044.34 1946.69,-1044.34 1978.55,-1044.34 1982.21,-856.02 1957.66,-729.43"/>
<polygon fill="black" stroke="black" points="1961.02,-728.4 1955.6,-719.29 1954.16,-729.79 1961.02,-728.4"/>
<text text-anchor="middle" x="1946.69" y="-1048.14" font-family="Times,serif" font-size="14.00">K</text>
</g>
<!-- 2&#45;&gt;2 -->
<g id="edge20" class="edge">
<title>2&#45;&gt;2</title>
<path fill="none" stroke="black" d="M1937.64,-719.35C1908.97,-851.97 1911.99,-1062.34 1946.69,-1062.34 1980.54,-1062.34 1984.23,-862.12 1957.77,-729.2"/>
<polygon fill="black" stroke="black" points="1961.19,-728.43 1955.73,-719.35 1954.34,-729.86 1961.19,-728.43"/>
<text text-anchor="middle" x="1946.69" y="-1066.14" font-family="Times,serif" font-size="14.00">f</text>
</g>
<!-- 2&#45;&gt;2 -->
<g id="edge21" class="edge">
<title>2&#45;&gt;2</title>
<path fill="none" stroke="black" d="M1937.55,-719.26C1906.96,-858.07 1910.01,-1080.34 1946.69,-1080.34 1982.51,-1080.34 1986.25,-868.37 1957.91,-729.16"/>
<polygon fill="black" stroke="black" points="1961.32,-728.32 1955.82,-719.26 1954.47,-729.77 1961.32,-728.32"/>
<text text-anchor="middle" x="1946.69" y="-1084.14" font-family="Times,serif" font-size="14.00">5</text>
</g>
<!-- 2&#45;&gt;2 -->
<g id="edge22" class="edge">
<title>2&#45;&gt;2</title>
<path fill="none" stroke="black" d="M1937.4,-719.48C1904.95,-864.5 1908.05,-1098.34 1946.69,-1098.34 1984.45,-1098.34 1988.26,-874.88 1958.1,-729.39"/>
<polygon fill="black" stroke="black" points="1961.49,-728.52 1955.97,-719.48 1954.65,-730 1961.49,-728.52"/>
<text text-anchor="middle" x="1946.69" y="-1102.14" font-family="Times,serif" font-size="14.00">l</text>
</g>
<!-- 2&#45;&gt;2 -->
<g id="edge23" class="edge">
<title>2&#45;&gt;2</title>
<path fill="none" stroke="black" d="M1937.29,-719.59C1902.95,-870.79 1906.08,-1116.34 1946.69,-1116.34 1986.42,-1116.34 1990.27,-881.22 1958.24,-729.46"/>
<polygon fill="black" stroke="black" points="1961.64,-728.61 1956.08,-719.59 1954.8,-730.11 1961.64,-728.61"/>
<text text-anchor="middle" x="1946.69" y="-1120.14" font-family="Times,serif" font-size="14.00">1</text>
</g>
<!-- 2&#45;&gt;2 -->
<g id="edge24" class="edge">
<title>2&#45;&gt;2</title>
<path fill="none" stroke="black" d="M1937.2,-719.58C1900.94,-876.94 1904.1,-1134.34 1946.69,-1134.34 1988.4,-1134.34 1992.29,-887.39 1958.35,-729.38"/>
<polygon fill="black" stroke="black" points="1961.76,-728.58 1956.17,-719.58 1954.92,-730.1 1961.76,-728.58"/>
<text text-anchor="middle" x="1946.69" y="-1138.14" font-family="Times,serif" font-size="14.00">N</text>
</g>
<!-- 2&#45;&gt;2 -->
<g id="edge25" class="edge">
<title>2&#45;&gt;2</title>
<path fill="none" stroke="black" d="M1937.21,-719.2C1898.93,-882.67 1902.08,-1152.34 1946.69,-1152.34 1990.37,-1152.34 1994.3,-893.62 1958.46,-729.39"/>
<polygon fill="black" stroke="black" points="1961.78,-728.18 1956.16,-719.2 1954.95,-729.72 1961.78,-728.18"/>
<text text-anchor="middle" x="1946.69" y="-1156.14" font-family="Times,serif" font-size="14.00">e</text>
</g>
<!-- 2&#45;&gt;2 -->
<g id="edge26" class="edge">
<title>2&#45;&gt;2</title>
<path fill="none" stroke="black" d="M1937.13,-719.22C1896.92,-888.84 1900.1,-1170.34 1946.69,-1170.34 1992.38,-1170.34 1996.31,-899.46 1958.49,-729.03"/>
<polygon fill="black" stroke="black" points="1961.89,-728.19 1956.24,-719.22 1955.06,-729.75 1961.89,-728.19"/>
<text text-anchor="middle" x="1946.69" y="-1174.14" font-family="Times,serif" font-size="14.00">X</text>
</g>
<!-- 2&#45;&gt;2 -->
<g id="edge27" class="edge">
<title>2&#45;&gt;2</title>
<path fill="none" stroke="black" d="M1937.08,-719.15C1894.91,-894.89 1898.11,-1188.34 1946.69,-1188.34 1994.36,-1188.34 1998.32,-905.68 1958.59,-729.05"/>
<polygon fill="black" stroke="black" points="1961.96,-728.1 1956.29,-719.15 1955.14,-729.68 1961.96,-728.1"/>
<text text-anchor="middle" x="1946.69" y="-1192.14" font-family="Times,serif" font-size="14.00">4</text>
</g>
<!-- 2&#45;&gt;2 -->
<g id="edge28" class="edge">
<title>2&#45;&gt;2</title>
<path fill="none" stroke="black" d="M1936.99,-719.27C1892.91,-901.15 1896.14,-1206.34 1946.69,-1206.34 1996.32,-1206.34 2000.33,-912.08 1958.73,-729.25"/>
<polygon fill="black" stroke="black" points="1962.08,-728.2 1956.38,-719.27 1955.26,-729.8 1962.08,-728.2"/>
<text text-anchor="middle" x="1946.69" y="-1210.14" font-family="Times,serif" font-size="14.00">o</text>
</g>
<!-- 2&#45;&gt;2 -->
<g id="edge29" class="edge">
<title>2&#45;&gt;2</title>
<path fill="none" stroke="black" d="M1936.91,-719.31C1890.9,-907.32 1894.16,-1224.34 1946.69,-1224.34 1998.31,-1224.34 2002.34,-918.06 1958.77,-729.06"/>
<polygon fill="black" stroke="black" points="1962.17,-728.23 1956.46,-719.31 1955.36,-729.85 1962.17,-728.23"/>
<text text-anchor="middle" x="1946.69" y="-1228.14" font-family="Times,serif" font-size="14.00">j</text>
</g>
<!-- 2&#45;&gt;2 -->
<g id="edge30" class="edge">
<title>2&#45;&gt;2</title>
<path fill="none" stroke="black" d="M1936.86,-719.28C1888.89,-913.39 1892.17,-1242.34 1946.69,-1242.34 2000.3,-1242.34 2004.35,-924.22 1958.85,-729.06"/>
<polygon fill="black" stroke="black" points="1962.24,-728.19 1956.51,-719.28 1955.44,-729.82 1962.24,-728.19"/>
<text text-anchor="middle" x="1946.69" y="-1246.14" font-family="Times,serif" font-size="14.00">Y</text>
</g>
<!-- 2&#45;&gt;2 -->
<g id="edge31" class="edge">
<title>2&#45;&gt;2</title>
<path fill="none" stroke="black" d="M1936.83,-719.18C1886.89,-919.38 1890.17,-1260.34 1946.69,-1260.34 2002.29,-1260.34 2006.36,-930.28 1958.91,-728.96"/>
<polygon fill="black" stroke="black" points="1962.29,-728.07 1956.54,-719.18 1955.49,-729.72 1962.29,-728.07"/>
<text text-anchor="middle" x="1946.69" y="-1264.14" font-family="Times,serif" font-size="14.00">v</text>
</g>
<!-- 2&#45;&gt;2 -->
<g id="edge32" class="edge">
<title>2&#45;&gt;2</title>
<path fill="none" stroke="black" d="M1936.83,-719C1884.88,-925.27 1888.17,-1278.34 1946.69,-1278.34 2004.29,-1278.34 2008.37,-936.22 1958.94,-728.77"/>
<polygon fill="black" stroke="black" points="1962.32,-727.88 1956.54,-719 1955.52,-729.54 1962.32,-727.88"/>
<text text-anchor="middle" x="1946.69" y="-1282.14" font-family="Times,serif" font-size="14.00">L</text>
</g>
<!-- 2&#45;&gt;2 -->
<g id="edge33" class="edge">
<title>2&#45;&gt;2</title>
<path fill="none" stroke="black" d="M1936.76,-719.07C1882.88,-931.45 1886.19,-1296.34 1946.69,-1296.34 2006.27,-1296.34 2010.38,-942.42 1959.02,-728.82"/>
<polygon fill="black" stroke="black" points="1962.41,-727.94 1956.61,-719.07 1955.61,-729.62 1962.41,-727.94"/>
<text text-anchor="middle" x="1946.69" y="-1300.14" font-family="Times,serif" font-size="14.00">i</text>
</g>
<!-- 2&#45;&gt;2 -->
<g id="edge34" class="edge">
<title>2&#45;&gt;2</title>
<path fill="none" stroke="black" d="M1936.71,-719.09C1880.87,-937.56 1884.2,-1314.34 1946.69,-1314.34 2008.23,-1314.34 2012.38,-948.88 1959.16,-729.12"/>
<polygon fill="black" stroke="black" points="1962.47,-727.95 1956.66,-719.09 1955.68,-729.64 1962.47,-727.95"/>
<text text-anchor="middle" x="1946.69" y="-1318.14" font-family="Times,serif" font-size="14.00">O</text>
</g>
<!-- 2&#45;&gt;2 -->
<g id="edge35" class="edge">
<title>2&#45;&gt;2</title>
<path fill="none" stroke="black" d="M1936.67,-719.06C1878.87,-943.61 1882.2,-1332.34 1946.69,-1332.34 2010.22,-1332.34 2014.39,-954.91 1959.2,-729.03"/>
<polygon fill="black" stroke="black" points="1962.52,-727.91 1956.7,-719.06 1955.73,-729.61 1962.52,-727.91"/>
<text text-anchor="middle" x="1946.69" y="-1336.14" font-family="Times,serif" font-size="14.00">6</text>
</g>
<!-- 2&#45;&gt;2 -->
<g id="edge36" class="edge">
<title>2&#45;&gt;2</title>
<path fill="none" stroke="black" d="M1936.65,-718.97C1876.86,-949.58 1880.21,-1350.34 1946.69,-1350.34 2012.22,-1350.34 2016.4,-960.85 1959.22,-728.87"/>
<polygon fill="black" stroke="black" points="1962.56,-727.81 1956.72,-718.97 1955.77,-729.52 1962.56,-727.81"/>
<text text-anchor="middle" x="1946.69" y="-1354.14" font-family="Times,serif" font-size="14.00">q</text>
</g>
<!-- 2&#45;&gt;2 -->
<g id="edge37" class="edge">
<title>2&#45;&gt;2</title>
<path fill="none" stroke="black" d="M1936.56,-719.19C1874.86,-955.91 1878.24,-1368.34 1946.69,-1368.34 2014.2,-1368.34 2018.41,-967.11 1959.31,-728.99"/>
<polygon fill="black" stroke="black" points="1962.67,-728.02 1956.81,-719.19 1955.88,-729.74 1962.67,-728.02"/>
<text text-anchor="middle" x="1946.69" y="-1372.14" font-family="Times,serif" font-size="14.00">T</text>
</g>
<!-- 2&#45;&gt;2 -->
<g id="edge38" class="edge">
<title>2&#45;&gt;2</title>
<path fill="none" stroke="black" d="M1936.57,-718.99C1872.85,-961.76 1876.23,-1386.34 1946.69,-1386.34 2016.22,-1386.34 2020.41,-972.88 1959.28,-728.69"/>
<polygon fill="black" stroke="black" points="1962.67,-727.81 1956.8,-718.99 1955.89,-729.55 1962.67,-727.81"/>
<text text-anchor="middle" x="1946.69" y="-1390.14" font-family="Times,serif" font-size="14.00">G</text>
</g>
<!-- 2&#45;&gt;2 -->
<g id="edge39" class="edge">
<title>2&#45;&gt;2</title>
<path fill="none" stroke="black" d="M1936.5,-719.13C1870.85,-967.99 1874.25,-1404.34 1946.69,-1404.34 2018.17,-1404.34 2022.42,-979.42 1959.43,-729.07"/>
<polygon fill="black" stroke="black" points="1962.76,-727.94 1956.87,-719.13 1955.98,-729.69 1962.76,-727.94"/>
<text text-anchor="middle" x="1946.69" y="-1408.14" font-family="Times,serif" font-size="14.00">Q</text>
</g>
<!-- 2&#45;&gt;2 -->
<g id="edge40" class="edge">
<title>2&#45;&gt;2</title>
<path fill="none" stroke="black" d="M1936.44,-719.23C1868.85,-974.17 1872.27,-1422.34 1946.69,-1422.34 2020.16,-1422.34 2024.42,-985.48 1959.47,-729.03"/>
<polygon fill="black" stroke="black" points="1962.83,-728.03 1956.93,-719.23 1956.05,-729.79 1962.83,-728.03"/>
<text text-anchor="middle" x="1946.69" y="-1426.14" font-family="Times,serif" font-size="14.00">w</text>
</g>
<!-- 2&#45;&gt;2 -->
<g id="edge41" class="edge">
<title>2&#45;&gt;2</title>
<path fill="none" stroke="black" d="M1936.39,-719.29C1866.85,-980.31 1870.28,-1440.34 1946.69,-1440.34 2022.12,-1440.34 2026.42,-991.91 1959.6,-729.32"/>
<polygon fill="black" stroke="black" points="1962.89,-728.08 1956.98,-719.29 1956.11,-729.85 1962.89,-728.08"/>
<text text-anchor="middle" x="1946.69" y="-1444.14" font-family="Times,serif" font-size="14.00">9</text>
</g>
<!-- 2&#45;&gt;2 -->
<g id="edge42" class="edge">
<title>2&#45;&gt;2</title>
<path fill="none" stroke="black" d="M1936.46,-718.9C1864.84,-985.91 1868.25,-1458.34 1946.69,-1458.34 2024.16,-1458.34 2028.44,-997.38 1959.5,-728.77"/>
<polygon fill="black" stroke="black" points="1962.83,-727.69 1956.91,-718.9 1956.06,-729.46 1962.83,-727.69"/>
<text text-anchor="middle" x="1946.69" y="-1462.14" font-family="Times,serif" font-size="14.00">P</text>
</g>
<!-- 2&#45;&gt;2 -->
<g id="edge44" class="edge">
<title>2&#45;&gt;2</title>
<path fill="none" stroke="black" d="M1936.43,-718.88C1862.84,-991.95 1866.25,-1476.34 1946.69,-1476.34 2026.17,-1476.34 2030.44,-1003.23 1959.49,-728.57"/>
<polygon fill="black" stroke="black" points="1962.87,-727.66 1956.94,-718.88 1956.1,-729.44 1962.87,-727.66"/>
<text text-anchor="middle" x="1946.69" y="-1480.14" font-family="Times,serif" font-size="14.00">B</text>
</g>
<!-- 2&#45;&gt;2 -->
<g id="edge53" class="edge">
<title>2&#45;&gt;2</title>
<path fill="none" stroke="black" d="M1936.31,-719.25C1860.84,-998.44 1864.3,-1494.34 1946.69,-1494.34 2028.11,-1494.34 2032.44,-1009.99 1959.68,-729.15"/>
<polygon fill="black" stroke="black" points="1963.01,-728.02 1957.06,-719.25 1956.24,-729.81 1963.01,-728.02"/>
<text text-anchor="middle" x="1946.69" y="-1498.14" font-family="Times,serif" font-size="14.00">u</text>
</g>
<!-- 2&#45;&gt;2 -->
<g id="edge54" class="edge">
<title>2&#45;&gt;2</title>
<path fill="none" stroke="black" d="M1936.3,-719.16C1858.83,-1004.39 1862.29,-1512.34 1946.69,-1512.34 2030.13,-1512.34 2034.45,-1015.74 1959.65,-728.86"/>
<polygon fill="black" stroke="black" points="1963.02,-727.93 1957.07,-719.16 1956.26,-729.73 1963.02,-727.93"/>
<text text-anchor="middle" x="1946.69" y="-1516.14" font-family="Times,serif" font-size="14.00">W</text>
</g>
<!-- 2&#45;&gt;2 -->
<g id="edge66" class="edge">
<title>2&#45;&gt;2</title>
<path fill="none" stroke="black" d="M1936.31,-719.04C1856.83,-1010.3 1860.29,-1530.34 1946.69,-1530.34 2032.11,-1530.34 2036.45,-1021.91 1959.71,-728.94"/>
<polygon fill="black" stroke="black" points="1963.03,-727.8 1957.06,-719.04 1956.26,-729.61 1963.03,-727.8"/>
<text text-anchor="middle" x="1946.69" y="-1534.14" font-family="Times,serif" font-size="14.00">7</text>
</g>
<!-- 2&#45;&gt;2 -->
<g id="edge69" class="edge">
<title>2&#45;&gt;2</title>
<path fill="none" stroke="black" d="M1936.32,-718.88C1854.83,-1016.16 1858.28,-1548.34 1946.69,-1548.34 2034.14,-1548.34 2038.46,-1027.53 1959.64,-728.54"/>
<polygon fill="black" stroke="black" points="1963.02,-727.63 1957.05,-718.88 1956.26,-729.45 1963.02,-727.63"/>
<text text-anchor="middle" x="1946.69" y="-1552.14" font-family="Times,serif" font-size="14.00">R</text>
</g>
<!-- 2&#45;&gt;2 -->
<g id="edge85" class="edge">
<title>2&#45;&gt;2</title>
<path fill="none" stroke="black" d="M1936.23,-719.15C1852.82,-1022.53 1856.31,-1566.34 1946.69,-1566.34 2036.09,-1566.34 2040.46,-1034.15 1959.8,-729.01"/>
<polygon fill="black" stroke="black" points="1963.13,-727.9 1957.14,-719.15 1956.37,-729.72 1963.13,-727.9"/>
<text text-anchor="middle" x="1946.69" y="-1570.14" font-family="Times,serif" font-size="14.00">D</text>
</g>
<!-- 2&#45;&gt;2 -->
<g id="edge86" class="edge">
<title>2&#45;&gt;2</title>
<path fill="none" stroke="black" d="M1936.26,-718.93C1850.82,-1028.31 1854.29,-1584.34 1946.69,-1584.34 2038.08,-1584.34 2042.46,-1040.19 1959.83,-728.98"/>
<polygon fill="black" stroke="black" points="1963.1,-727.67 1957.11,-718.93 1956.34,-729.5 1963.1,-727.67"/>
<text text-anchor="middle" x="1946.69" y="-1588.14" font-family="Times,serif" font-size="14.00">p</text>
</g>
<!-- 2&#45;&gt;2 -->
<g id="edge105" class="edge">
<title>2&#45;&gt;2</title>
<path fill="none" stroke="black" d="M1936.18,-719.15C1848.82,-1034.62 1852.32,-1602.34 1946.69,-1602.34 2040.08,-1602.34 2044.47,-1046.2 1959.85,-728.93"/>
<polygon fill="black" stroke="black" points="1963.19,-727.88 1957.19,-719.15 1956.44,-729.72 1963.19,-727.88"/>
<text text-anchor="middle" x="1946.69" y="-1606.14" font-family="Times,serif" font-size="14.00">h</text>
</g>
<!-- 2&#45;&gt;2 -->
<g id="edge109" class="edge">
<title>2&#45;&gt;2</title>
<path fill="none" stroke="black" d="M1936.24,-718.86C1846.82,-1040.32 1850.3,-1620.34 1946.69,-1620.34 2042.08,-1620.34 2046.47,-1052.15 1959.85,-728.83"/>
<polygon fill="black" stroke="black" points="1963.14,-727.59 1957.13,-718.86 1956.39,-729.43 1963.14,-727.59"/>
<text text-anchor="middle" x="1946.69" y="-1624.14" font-family="Times,serif" font-size="14.00">2</text>
</g>
<!-- 2&#45;&gt;2 -->
<g id="edge111" class="edge">
<title>2&#45;&gt;2</title>
<path fill="none" stroke="black" d="M1936.17,-719.04C1844.81,-1046.57 1848.32,-1638.34 1946.69,-1638.34 2044.09,-1638.34 2048.48,-1058.07 1959.85,-728.71"/>
<polygon fill="black" stroke="black" points="1963.22,-727.76 1957.2,-719.04 1956.47,-729.61 1963.22,-727.76"/>
<text text-anchor="middle" x="1946.69" y="-1642.14" font-family="Times,serif" font-size="14.00">a</text>
</g>
<!-- 2&#45;&gt;2 -->
<g id="edge132" class="edge">
<title>2&#45;&gt;2</title>
<path fill="none" stroke="black" d="M1936.17,-718.94C1842.81,-1052.49 1846.32,-1656.34 1946.69,-1656.34 2046.07,-1656.34 2050.48,-1064.23 1959.9,-728.79"/>
<polygon fill="black" stroke="black" points="1963.22,-727.66 1957.2,-718.94 1956.47,-729.51 1963.22,-727.66"/>
<text text-anchor="middle" x="1946.69" y="-1660.14" font-family="Times,serif" font-size="14.00">b</text>
</g>
<!-- 2&#45;&gt;2 -->
<g id="edge135" class="edge">
<title>2&#45;&gt;2</title>
<path fill="none" stroke="black" d="M1936.19,-718.82C1840.81,-1058.38 1844.31,-1674.34 1946.69,-1674.34 2048.09,-1674.34 2052.49,-1070.05 1959.88,-728.59"/>
<polygon fill="black" stroke="black" points="1963.22,-727.53 1957.18,-718.82 1956.47,-729.39 1963.22,-727.53"/>
<text text-anchor="middle" x="1946.69" y="-1678.14" font-family="Times,serif" font-size="14.00">t</text>
</g>
<!-- 2&#45;&gt;2 -->
<g id="edge138" class="edge">
<title>2&#45;&gt;2</title>
<path fill="none" stroke="black" d="M1936.14,-718.93C1838.81,-1064.55 1842.32,-1692.34 1946.69,-1692.34 2050.08,-1692.34 2054.49,-1076.15 1959.92,-728.62"/>
<polygon fill="black" stroke="black" points="1963.27,-727.63 1957.23,-718.93 1956.53,-729.5 1963.27,-727.63"/>
<text text-anchor="middle" x="1946.69" y="-1696.14" font-family="Times,serif" font-size="14.00">F</text>
</g>
<!-- 2&#45;&gt;2 -->
<g id="edge144" class="edge">
<title>2&#45;&gt;2</title>
<path fill="none" stroke="black" d="M1936.09,-719.02C1836.81,-1070.7 1840.34,-1710.34 1946.69,-1710.34 2052.05,-1710.34 2056.49,-1082.52 1960.01,-728.89"/>
<polygon fill="black" stroke="black" points="1963.32,-727.72 1957.28,-719.02 1956.58,-729.6 1963.32,-727.72"/>
<text text-anchor="middle" x="1946.69" y="-1714.14" font-family="Times,serif" font-size="14.00">8</text>
</g>
<!-- 2&#45;&gt;2 -->
<g id="edge147" class="edge">
<title>2&#45;&gt;2</title>
<path fill="none" stroke="black" d="M1936.13,-718.83C1834.8,-1076.5 1838.32,-1728.34 1946.69,-1728.34 2054.07,-1728.34 2058.49,-1088.22 1959.96,-728.59"/>
<polygon fill="black" stroke="black" points="1963.3,-727.52 1957.24,-718.83 1956.55,-729.4 1963.3,-727.52"/>
<text text-anchor="middle" x="1946.69" y="-1732.14" font-family="Times,serif" font-size="14.00">3</text>
</g>
<!-- 2&#45;&gt;2 -->
<g id="edge158" class="edge">
<title>2&#45;&gt;2</title>
<path fill="none" stroke="black" d="M1936.1,-718.88C1832.8,-1082.6 1836.33,-1746.34 1946.69,-1746.34 2056.07,-1746.34 2060.5,-1094.21 1959.97,-728.54"/>
<polygon fill="black" stroke="black" points="1963.34,-727.57 1957.27,-718.88 1956.59,-729.45 1963.34,-727.57"/>
<text text-anchor="middle" x="1946.69" y="-1750.14" font-family="Times,serif" font-size="14.00">S</text>
</g>
<!-- 2&#45;&gt;2 -->
<g id="edge170" class="edge">
<title>2&#45;&gt;2</title>
<path fill="none" stroke="black" d="M1936.07,-718.91C1830.8,-1088.67 1834.34,-1764.34 1946.69,-1764.34 2058.04,-1764.34 2062.5,-1100.5 1960.05,-728.73"/>
<polygon fill="black" stroke="black" points="1963.37,-727.6 1957.3,-718.91 1956.63,-729.49 1963.37,-727.6"/>
<text text-anchor="middle" x="1946.69" y="-1768.14" font-family="Times,serif" font-size="14.00">J</text>
</g>
<!-- 2&#45;&gt;2 -->
<g id="edge176" class="edge">
<title>2&#45;&gt;2</title>
<path fill="none" stroke="black" d="M1936.05,-718.93C1828.8,-1094.72 1832.34,-1782.34 1946.69,-1782.34 2060.05,-1782.34 2064.5,-1106.42 1960.05,-728.63"/>
<polygon fill="black" stroke="black" points="1963.39,-727.61 1957.32,-718.93 1956.66,-729.5 1963.39,-727.61"/>
<text text-anchor="middle" x="1946.69" y="-1786.14" font-family="Times,serif" font-size="14.00">A</text>
</g>
<!-- 2&#45;&gt;2 -->
<g id="edge177" class="edge">
<title>2&#45;&gt;2</title>
<path fill="none" stroke="black" d="M1936.03,-718.93C1826.8,-1100.75 1830.35,-1800.34 1946.69,-1800.34 2062.03,-1800.34 2066.5,-1112.65 1960.11,-728.78"/>
<polygon fill="black" stroke="black" points="1963.42,-727.6 1957.34,-718.93 1956.68,-729.5 1963.42,-727.6"/>
<text text-anchor="middle" x="1946.69" y="-1804.14" font-family="Times,serif" font-size="14.00">n</text>
</g>
<!-- 2&#45;&gt;2 -->
<g id="edge178" class="edge">
<title>2&#45;&gt;2</title>
<path fill="none" stroke="black" d="M1936.02,-718.91C1824.8,-1106.75 1828.35,-1818.34 1946.69,-1818.34 2064.04,-1818.34 2068.51,-1118.52 1960.09,-728.63"/>
<polygon fill="black" stroke="black" points="1963.43,-727.58 1957.35,-718.91 1956.7,-729.48 1963.43,-727.58"/>
<text text-anchor="middle" x="1946.69" y="-1822.14" font-family="Times,serif" font-size="14.00">z</text>
</g>
<!-- 2&#45;&gt;2 -->
<g id="edge179" class="edge">
<title>2&#45;&gt;2</title>
<path fill="none" stroke="black" d="M1936.02,-718.87C1822.79,-1112.74 1826.35,-1836.34 1946.69,-1836.34 2066.02,-1836.34 2070.51,-1124.7 1960.15,-728.74"/>
<polygon fill="black" stroke="black" points="1963.44,-727.54 1957.35,-718.87 1956.71,-729.44 1963.44,-727.54"/>
<text text-anchor="middle" x="1946.69" y="-1840.14" font-family="Times,serif" font-size="14.00">V</text>
</g>
<!-- 2&#45;&gt;2 -->
<g id="edge180" class="edge">
<title>2&#45;&gt;2</title>
<path fill="none" stroke="black" d="M1936.02,-718.81C1820.79,-1118.7 1824.35,-1854.34 1946.69,-1854.34 2068.04,-1854.34 2072.51,-1130.5 1960.11,-728.54"/>
<polygon fill="black" stroke="black" points="1963.45,-727.48 1957.35,-718.81 1956.71,-729.39 1963.45,-727.48"/>
<text text-anchor="middle" x="1946.69" y="-1858.14" font-family="Times,serif" font-size="14.00">d</text>
</g>
<!-- 1 -->
<g id="node2" class="node">
<title>1</title>
<ellipse fill="none" stroke="black" cx="1233.69" cy="-683.85" rx="32.49" ry="32.49"/>
<ellipse fill="none" stroke="black" cx="1233.69" cy="-683.85" rx="36.49" ry="36.49"/>
<text text-anchor="middle" x="1233.69" y="-680.15" font-family="Times,serif" font-size="14.00">1 (0)</text>
</g>
<!-- 1&#45;&gt;2 -->
<g id="edge43" class="edge">
<title>1&#45;&gt;2</title>
<path fill="none" stroke="black" d="M1238.99,-720.28C1264.73,-931.5 1403.62,-1984.53 1598.19,-1839.85 1785.49,-1700.56 1909.95,-928.36 1939.11,-730.2"/>
<polygon fill="black" stroke="black" points="1942.6,-730.52 1940.58,-720.12 1935.67,-729.51 1942.6,-730.52"/>
<text text-anchor="middle" x="1590.69" y="-1850.65" font-family="Times,serif" font-size="14.00">I</text>
</g>
<!-- 1&#45;&gt;2 -->
<g id="edge46" class="edge">
<title>1&#45;&gt;2</title>
<path fill="none" stroke="black" d="M1239.28,-720.07C1266.23,-926.58 1409.08,-1941.1 1598.19,-1801.85 1780.09,-1667.9 1908.1,-923.65 1938.66,-729.94"/>
<polygon fill="black" stroke="black" points="1942.15,-730.24 1940.24,-719.82 1935.24,-729.15 1942.15,-730.24"/>
<text text-anchor="middle" x="1590.69" y="-1812.65" font-family="Times,serif" font-size="14.00">2</text>
</g>
<!-- 1&#45;&gt;2 -->
<g id="edge49" class="edge">
<title>1&#45;&gt;2</title>
<path fill="none" stroke="black" d="M1239.62,-720.14C1267.9,-922.49 1414.62,-1897.62 1598.19,-1763.85 1774.72,-1635.2 1906.2,-918.8 1938.19,-729.65"/>
<polygon fill="black" stroke="black" points="1941.64,-730.19 1939.85,-719.75 1934.74,-729.03 1941.64,-730.19"/>
<text text-anchor="middle" x="1590.69" y="-1774.65" font-family="Times,serif" font-size="14.00">F</text>
</g>
<!-- 1&#45;&gt;2 -->
<g id="edge50" class="edge">
<title>1&#45;&gt;2</title>
<path fill="none" stroke="black" d="M1234.12,-720.49C1232.12,-932.53 1239.9,-1984.04 1598.19,-1725.85 1769.29,-1602.54 1904.14,-914.4 1937.65,-729.56"/>
<polygon fill="black" stroke="black" points="1941.11,-730.08 1939.44,-719.62 1934.22,-728.84 1941.11,-730.08"/>
<text text-anchor="middle" x="1590.69" y="-1729.65" font-family="Times,serif" font-size="14.00">5</text>
</g>
<!-- 1&#45;&gt;2 -->
<g id="edge57" class="edge">
<title>1&#45;&gt;2</title>
<path fill="none" stroke="black" d="M1234.42,-720.47C1234.22,-927.66 1250.87,-1935.16 1598.19,-1687.85 1924.02,-1455.82 1947.18,-896.42 1946.65,-730.8"/>
<polygon fill="black" stroke="black" points="1950.15,-730.44 1946.58,-720.47 1943.15,-730.49 1950.15,-730.44"/>
<text text-anchor="middle" x="1590.69" y="-1691.65" font-family="Times,serif" font-size="14.00">d</text>
</g>
<!-- 1&#45;&gt;2 -->
<g id="edge58" class="edge">
<title>1&#45;&gt;2</title>
<path fill="none" stroke="black" d="M1234.75,-720.36C1236.4,-922.45 1261.76,-1886.35 1598.19,-1649.85 1913.49,-1428.18 1944.07,-891.7 1945.96,-730.45"/>
<polygon fill="black" stroke="black" points="1949.46,-730.41 1946.04,-720.38 1942.46,-730.35 1949.46,-730.41"/>
<text text-anchor="middle" x="1590.69" y="-1653.65" font-family="Times,serif" font-size="14.00">e</text>
</g>
<!-- 1&#45;&gt;2 -->
<g id="edge63" class="edge">
<title>1&#45;&gt;2</title>
<path fill="none" stroke="black" d="M1235.1,-720.49C1238.67,-917.9 1272.74,-1837.5 1598.19,-1611.85 1902.58,-1400.8 1940.76,-888.35 1945.21,-730.75"/>
<polygon fill="black" stroke="black" points="1948.72,-730.54 1945.46,-720.45 1941.72,-730.36 1948.72,-730.54"/>
<text text-anchor="middle" x="1590.69" y="-1615.65" font-family="Times,serif" font-size="14.00">u</text>
</g>
<!-- 1&#45;&gt;2 -->
<g id="edge64" class="edge">
<title>1&#45;&gt;2</title>
<path fill="none" stroke="black" d="M1235.48,-720.53C1241.02,-912.92 1283.61,-1788.72 1598.19,-1573.85 1892.08,-1373.09 1937.44,-883.63 1944.42,-730.46"/>
<polygon fill="black" stroke="black" points="1947.92,-730.58 1944.84,-720.44 1940.92,-730.28 1947.92,-730.58"/>
<text text-anchor="middle" x="1590.69" y="-1577.65" font-family="Times,serif" font-size="14.00">U</text>
</g>
<!-- 1&#45;&gt;2 -->
<g id="edge73" class="edge">
<title>1&#45;&gt;2</title>
<path fill="none" stroke="black" d="M1235.89,-720.45C1243.45,-907.52 1294.37,-1740.04 1598.19,-1535.85 1881.41,-1345.49 1933.93,-879.55 1943.55,-730.51"/>
<polygon fill="black" stroke="black" points="1947.06,-730.53 1944.18,-720.33 1940.07,-730.1 1947.06,-730.53"/>
<text text-anchor="middle" x="1590.69" y="-1539.65" font-family="Times,serif" font-size="14.00">B</text>
</g>
<!-- 1&#45;&gt;2 -->
<g id="edge74" class="edge">
<title>1&#45;&gt;2</title>
<path fill="none" stroke="black" d="M1236.34,-720.27C1245.96,-901.69 1305.02,-1691.46 1598.19,-1497.85 1870.57,-1317.96 1930.18,-876.1 1942.58,-730.92"/>
<polygon fill="black" stroke="black" points="1946.1,-730.84 1943.43,-720.58 1939.13,-730.27 1946.1,-730.84"/>
<text text-anchor="middle" x="1590.69" y="-1501.65" font-family="Times,serif" font-size="14.00">z</text>
</g>
<!-- 1&#45;&gt;2 -->
<g id="edge75" class="edge">
<title>1&#45;&gt;2</title>
<path fill="none" stroke="black" d="M1236.83,-720.27C1248.6,-896.26 1315.7,-1642.86 1598.19,-1459.85 1860.45,-1289.93 1926.59,-870.36 1941.63,-730.25"/>
<polygon fill="black" stroke="black" points="1945.12,-730.57 1942.66,-720.26 1938.15,-729.85 1945.12,-730.57"/>
<text text-anchor="middle" x="1590.69" y="-1463.65" font-family="Times,serif" font-size="14.00">a</text>
</g>
<!-- 1&#45;&gt;2 -->
<g id="edge76" class="edge">
<title>1&#45;&gt;2</title>
<path fill="none" stroke="black" d="M1237.38,-720.41C1251.42,-891.12 1326.38,-1594.29 1598.19,-1421.85 1849.92,-1262.13 1922.63,-866.04 1940.51,-730.33"/>
<polygon fill="black" stroke="black" points="1944,-730.63 1941.8,-720.27 1937.06,-729.74 1944,-730.63"/>
<text text-anchor="middle" x="1590.69" y="-1425.65" font-family="Times,serif" font-size="14.00">b</text>
</g>
<!-- 1&#45;&gt;2 -->
<g id="edge77" class="edge">
<title>1&#45;&gt;2</title>
<path fill="none" stroke="black" d="M1237.95,-720.12C1254.25,-884.64 1336.76,-1545.93 1598.19,-1383.85 1839.57,-1234.18 1918.54,-861.24 1939.32,-730.23"/>
<polygon fill="black" stroke="black" points="1942.81,-730.55 1940.88,-720.13 1935.89,-729.48 1942.81,-730.55"/>
<text text-anchor="middle" x="1590.69" y="-1387.65" font-family="Times,serif" font-size="14.00">4</text>
</g>
<!-- 1&#45;&gt;2 -->
<g id="edge83" class="edge">
<title>1&#45;&gt;2</title>
<path fill="none" stroke="black" d="M1238.62,-720.21C1257.34,-879.06 1347.26,-1497.53 1598.19,-1345.85 1829.41,-1206.08 1914.36,-855.95 1938.04,-729.94"/>
<polygon fill="black" stroke="black" points="1941.52,-730.32 1939.89,-719.85 1934.64,-729.06 1941.52,-730.32"/>
<text text-anchor="middle" x="1590.69" y="-1349.65" font-family="Times,serif" font-size="14.00">c</text>
</g>
<!-- 1&#45;&gt;2 -->
<g id="edge91" class="edge">
<title>1&#45;&gt;2</title>
<path fill="none" stroke="black" d="M1239.34,-720.11C1260.54,-872.82 1357.55,-1449.27 1598.19,-1307.85 1819.18,-1177.96 1909.86,-850.94 1936.58,-729.87"/>
<polygon fill="black" stroke="black" points="1940.06,-730.33 1938.76,-719.81 1933.22,-728.85 1940.06,-730.33"/>
<text text-anchor="middle" x="1590.69" y="-1311.65" font-family="Times,serif" font-size="14.00">0</text>
</g>
<!-- 1&#45;&gt;2 -->
<g id="edge92" class="edge">
<title>1&#45;&gt;2</title>
<path fill="none" stroke="black" d="M1240.16,-720.06C1263.95,-866.52 1367.76,-1401.1 1598.19,-1269.85 1809.44,-1149.52 1905.48,-844.64 1935.13,-729.14"/>
<polygon fill="black" stroke="black" points="1938.58,-729.76 1937.63,-719.21 1931.79,-728.05 1938.58,-729.76"/>
<text text-anchor="middle" x="1590.69" y="-1273.65" font-family="Times,serif" font-size="14.00">J</text>
</g>
<!-- 1&#45;&gt;2 -->
<g id="edge96" class="edge">
<title>1&#45;&gt;2</title>
<path fill="none" stroke="black" d="M1241.08,-720.01C1267.58,-860.06 1377.86,-1353.02 1598.19,-1231.85 1799.44,-1121.16 1900.54,-839.19 1933.37,-728.97"/>
<polygon fill="black" stroke="black" points="1936.79,-729.74 1936.24,-719.16 1930.07,-727.77 1936.79,-729.74"/>
<text text-anchor="middle" x="1590.69" y="-1235.65" font-family="Times,serif" font-size="14.00">P</text>
</g>
<!-- 1&#45;&gt;2 -->
<g id="edge97" class="edge">
<title>1&#45;&gt;2</title>
<path fill="none" stroke="black" d="M1242.08,-719.7C1271.32,-852.79 1387.68,-1305.14 1598.19,-1193.85 1789.96,-1092.46 1895.75,-832.43 1931.61,-728.12"/>
<polygon fill="black" stroke="black" points="1934.97,-729.12 1934.86,-718.52 1928.34,-726.87 1934.97,-729.12"/>
<text text-anchor="middle" x="1590.69" y="-1203.65" font-family="Times,serif" font-size="14.00">K</text>
</g>
<!-- 1&#45;&gt;2 -->
<g id="edge104" class="edge">
<title>1&#45;&gt;2</title>
<path fill="none" stroke="black" d="M1243.14,-719.11C1275.13,-844.72 1397.19,-1257.46 1598.19,-1155.85 1780.55,-1063.65 1890.64,-825.66 1929.62,-727.34"/>
<polygon fill="black" stroke="black" points="1932.9,-728.58 1933.28,-717.99 1926.38,-726.03 1932.9,-728.58"/>
<text text-anchor="middle" x="1590.69" y="-1165.65" font-family="Times,serif" font-size="14.00">Z</text>
</g>
<!-- 1&#45;&gt;2 -->
<g id="edge112" class="edge">
<title>1&#45;&gt;2</title>
<path fill="none" stroke="black" d="M1244.52,-719.06C1279.6,-837.6 1406.82,-1209.77 1598.19,-1117.85 1771.29,-1034.69 1885.22,-818.65 1927.4,-726.5"/>
<polygon fill="black" stroke="black" points="1930.68,-727.75 1931.61,-717.19 1924.3,-724.86 1930.68,-727.75"/>
<text text-anchor="middle" x="1590.69" y="-1126.65" font-family="Times,serif" font-size="14.00">q</text>
</g>
<!-- 1&#45;&gt;2 -->
<g id="edge113" class="edge">
<title>1&#45;&gt;2</title>
<path fill="none" stroke="black" d="M1246,-718.59C1284.17,-829.38 1416.05,-1162.34 1598.19,-1079.85 1762.38,-1005.48 1879.71,-810.94 1925.02,-725.32"/>
<polygon fill="black" stroke="black" points="1928.15,-726.88 1929.69,-716.4 1921.95,-723.64 1928.15,-726.88"/>
<text text-anchor="middle" x="1590.69" y="-1088.65" font-family="Times,serif" font-size="14.00">o</text>
</g>
<!-- 1&#45;&gt;2 -->
<g id="edge115" class="edge">
<title>1&#45;&gt;2</title>
<path fill="none" stroke="black" d="M1252.78,-715.27C1297.49,-789.29 1421.36,-973.54 1583.19,-1041.85 1751.28,-1112.8 1883.84,-836.98 1928.99,-727.15"/>
<polygon fill="black" stroke="black" points="1932.32,-728.26 1932.84,-717.68 1925.84,-725.62 1932.32,-728.26"/>
<text text-anchor="middle" x="1590.69" y="-1049.65" font-family="Times,serif" font-size="14.00">S</text>
</g>
<!-- 1&#45;&gt;2 -->
<g id="edge120" class="edge">
<title>1&#45;&gt;2</title>
<path fill="none" stroke="black" d="M1254.91,-713.77C1302.56,-781.24 1429.53,-944 1583.19,-1003.85 1742.51,-1065.9 1877.78,-826.65 1926.41,-726.26"/>
<polygon fill="black" stroke="black" points="1929.69,-727.52 1930.85,-716.99 1923.38,-724.5 1929.69,-727.52"/>
<text text-anchor="middle" x="1590.69" y="-1011.65" font-family="Times,serif" font-size="14.00">l</text>
</g>
<!-- 1&#45;&gt;2 -->
<g id="edge122" class="edge">
<title>1&#45;&gt;2</title>
<path fill="none" stroke="black" d="M1257.11,-711.88C1307.58,-772.43 1437.18,-914.17 1583.19,-965.85 1734.34,-1019.34 1871.7,-814.79 1923.67,-724.58"/>
<polygon fill="black" stroke="black" points="1926.82,-726.13 1928.72,-715.71 1920.73,-722.67 1926.82,-726.13"/>
<text text-anchor="middle" x="1590.69" y="-972.65" font-family="Times,serif" font-size="14.00">M</text>
</g>
<!-- 1&#45;&gt;2 -->
<g id="edge124" class="edge">
<title>1&#45;&gt;2</title>
<path fill="none" stroke="black" d="M1254.15,-714.08C1305.19,-789.19 1449.25,-974.91 1598.19,-927.85 1730.71,-885.97 1856.51,-773.43 1913.61,-717.03"/>
<polygon fill="black" stroke="black" points="1916.27,-719.32 1920.88,-709.78 1911.33,-714.36 1916.27,-719.32"/>
<text text-anchor="middle" x="1590.69" y="-934.65" font-family="Times,serif" font-size="14.00">y</text>
</g>
<!-- 1&#45;&gt;2 -->
<g id="edge127" class="edge">
<title>1&#45;&gt;2</title>
<path fill="none" stroke="black" d="M1257.12,-712.17C1311.53,-777.18 1456.52,-928.68 1598.19,-889.85 1724.15,-855.31 1850.76,-762 1910.4,-713.71"/>
<polygon fill="black" stroke="black" points="1912.83,-716.24 1918.36,-707.2 1908.4,-710.82 1912.83,-716.24"/>
<text text-anchor="middle" x="1590.69" y="-895.65" font-family="Times,serif" font-size="14.00">A</text>
</g>
<!-- 1&#45;&gt;2 -->
<g id="edge128" class="edge">
<title>1&#45;&gt;2</title>
<path fill="none" stroke="black" d="M1260.23,-709.31C1317.75,-763.49 1462.99,-882.81 1598.19,-851.85 1718.34,-824.33 1845.24,-749.61 1907.16,-709.74"/>
<polygon fill="black" stroke="black" points="1909.33,-712.5 1915.81,-704.12 1905.52,-706.63 1909.33,-712.5"/>
<text text-anchor="middle" x="1590.69" y="-857.65" font-family="Times,serif" font-size="14.00">7</text>
</g>
<!-- 1&#45;&gt;2 -->
<g id="edge129" class="edge">
<title>1&#45;&gt;2</title>
<path fill="none" stroke="black" d="M1263.46,-705.45C1323.78,-748.15 1468.59,-837.29 1598.19,-813.85 1713.64,-792.96 1840.72,-735.98 1904.44,-704.85"/>
<polygon fill="black" stroke="black" points="1906.31,-707.82 1913.74,-700.26 1903.22,-701.54 1906.31,-707.82"/>
<text text-anchor="middle" x="1590.69" y="-818.65" font-family="Times,serif" font-size="14.00">3</text>
</g>
<!-- 1&#45;&gt;2 -->
<g id="edge130" class="edge">
<title>1&#45;&gt;2</title>
<path fill="none" stroke="black" d="M1266.28,-700.29C1328.77,-730.91 1472.95,-792.14 1598.19,-775.85 1710.03,-761.29 1837.14,-721.44 1902.23,-699.26"/>
<polygon fill="black" stroke="black" points="1903.43,-702.55 1911.75,-695.99 1901.15,-695.93 1903.43,-702.55"/>
<text text-anchor="middle" x="1590.69" y="-780.65" font-family="Times,serif" font-size="14.00">t</text>
</g>
<!-- 1&#45;&gt;2 -->
<g id="edge131" class="edge">
<title>1&#45;&gt;2</title>
<path fill="none" stroke="black" d="M1268.83,-694.12C1333.02,-712.28 1476.21,-747.27 1598.19,-737.85 1707.68,-729.39 1834.87,-706.16 1900.82,-693.09"/>
<polygon fill="black" stroke="black" points="1901.75,-696.47 1910.87,-691.08 1900.38,-689.61 1901.75,-696.47"/>
<text text-anchor="middle" x="1590.69" y="-741.65" font-family="Times,serif" font-size="14.00">n</text>
</g>
<!-- 1&#45;&gt;2 -->
<g id="edge133" class="edge">
<title>1&#45;&gt;2</title>
<path fill="none" stroke="black" d="M1270.27,-687C1335.34,-692.4 1477.88,-702.62 1598.19,-699.85 1706.5,-697.35 1833.67,-690.5 1900.06,-686.62"/>
<polygon fill="black" stroke="black" points="1900.41,-690.1 1910.19,-686.02 1900,-683.12 1900.41,-690.1"/>
<text text-anchor="middle" x="1590.69" y="-703.65" font-family="Times,serif" font-size="14.00">D</text>
</g>
<!-- 1&#45;&gt;2 -->
<g id="edge134" class="edge">
<title>1&#45;&gt;2</title>
<path fill="none" stroke="black" d="M1270.29,-683.26C1335.38,-682.24 1477.96,-680.33 1598.19,-680.85 1706.42,-681.31 1833.62,-682.6 1900.04,-683.33"/>
<polygon fill="black" stroke="black" points="1900.13,-686.83 1910.17,-683.44 1900.21,-679.83 1900.13,-686.83"/>
<text text-anchor="middle" x="1590.69" y="-684.65" font-family="Times,serif" font-size="14.00">9</text>
</g>
<!-- 1&#45;&gt;2 -->
<g id="edge137" class="edge">
<title>1&#45;&gt;2</title>
<path fill="none" stroke="black" d="M1270,-679.54C1334.92,-672.12 1477.65,-658.04 1598.19,-661.85 1706.58,-665.27 1833.71,-674.7 1900.08,-680.04"/>
<polygon fill="black" stroke="black" points="1899.95,-683.54 1910.2,-680.86 1900.52,-676.56 1899.95,-683.54"/>
<text text-anchor="middle" x="1590.69" y="-665.65" font-family="Times,serif" font-size="14.00">W</text>
</g>
<!-- 1&#45;&gt;2 -->
<g id="edge139" class="edge">
<title>1&#45;&gt;2</title>
<path fill="none" stroke="black" d="M1269.41,-675.94C1333.98,-662.12 1476.94,-635.72 1598.19,-642.85 1706.98,-649.24 1833.95,-666.81 1900.19,-676.75"/>
<polygon fill="black" stroke="black" points="1899.88,-680.24 1910.29,-678.28 1900.92,-673.32 1899.88,-680.24"/>
<text text-anchor="middle" x="1590.69" y="-646.65" font-family="Times,serif" font-size="14.00">h</text>
</g>
<!-- 1&#45;&gt;2 -->
<g id="edge140" class="edge">
<title>1&#45;&gt;2</title>
<path fill="none" stroke="black" d="M1268.54,-672.51C1332.54,-652.35 1475.83,-613.36 1598.19,-623.85 1707.91,-633.25 1835,-659.06 1900.89,-673.58"/>
<polygon fill="black" stroke="black" points="1900.4,-677.06 1910.92,-675.81 1901.92,-670.22 1900.4,-677.06"/>
<text text-anchor="middle" x="1590.69" y="-627.65" font-family="Times,serif" font-size="14.00">w</text>
</g>
<!-- 1&#45;&gt;2 -->
<g id="edge141" class="edge">
<title>1&#45;&gt;2</title>
<path fill="none" stroke="black" d="M1267.39,-669.32C1330.62,-642.91 1474.32,-590.94 1598.19,-604.85 1709.07,-617.29 1836.19,-651.41 1901.63,-670.49"/>
<polygon fill="black" stroke="black" points="1901.02,-673.95 1911.6,-673.42 1902.99,-667.24 1901.02,-673.95"/>
<text text-anchor="middle" x="1590.69" y="-608.65" font-family="Times,serif" font-size="14.00">k</text>
</g>
<!-- 1&#45;&gt;2 -->
<g id="edge142" class="edge">
<title>1&#45;&gt;2</title>
<path fill="none" stroke="black" d="M1266.22,-666.33C1328.59,-633.71 1472.58,-568.47 1598.19,-585.85 1710.69,-601.41 1838.03,-644.04 1902.83,-667.62"/>
<polygon fill="black" stroke="black" points="1901.72,-670.94 1912.31,-671.1 1904.13,-664.37 1901.72,-670.94"/>
<text text-anchor="middle" x="1590.69" y="-589.65" font-family="Times,serif" font-size="14.00">Q</text>
</g>
<!-- 1&#45;&gt;2 -->
<g id="edge143" class="edge">
<title>1&#45;&gt;2</title>
<path fill="none" stroke="black" d="M1264.55,-663.65C1325.7,-624.67 1470.21,-544.71 1598.19,-565.85 1712.39,-584.71 1839.51,-636.23 1903.7,-664.55"/>
<polygon fill="black" stroke="black" points="1902.52,-667.86 1913.07,-668.72 1905.36,-661.46 1902.52,-667.86"/>
<text text-anchor="middle" x="1590.69" y="-569.65" font-family="Times,serif" font-size="14.00">T</text>
</g>
<!-- 1&#45;&gt;2 -->
<g id="edge146" class="edge">
<title>1&#45;&gt;2</title>
<path fill="none" stroke="black" d="M1262.9,-661.25C1322.72,-616.05 1467.57,-520.86 1598.19,-545.85 1714.62,-568.12 1841.78,-628.84 1905.1,-661.82"/>
<polygon fill="black" stroke="black" points="1903.86,-665.12 1914.34,-666.68 1907.11,-658.93 1903.86,-665.12"/>
<text text-anchor="middle" x="1590.69" y="-549.65" font-family="Times,serif" font-size="14.00">6</text>
</g>
<!-- 1&#45;&gt;2 -->
<g id="edge148" class="edge">
<title>1&#45;&gt;2</title>
<path fill="none" stroke="black" d="M1261.26,-659.14C1319.67,-607.85 1464.69,-496.92 1598.19,-525.85 1717.02,-551.6 1844.02,-621.59 1906.43,-659.19"/>
<polygon fill="black" stroke="black" points="1904.8,-662.29 1915.16,-664.49 1908.43,-656.31 1904.8,-662.29"/>
<text text-anchor="middle" x="1590.69" y="-529.65" font-family="Times,serif" font-size="14.00">X</text>
</g>
<!-- 1&#45;&gt;2 -->
<g id="edge149" class="edge">
<title>1&#45;&gt;2</title>
<path fill="none" stroke="black" d="M1259.22,-657.72C1315.83,-600.71 1461.23,-472.81 1598.19,-505.85 1719.71,-535.16 1846.5,-614.62 1907.89,-656.76"/>
<polygon fill="black" stroke="black" points="1906.25,-659.88 1916.46,-662.7 1910.23,-654.13 1906.25,-659.88"/>
<text text-anchor="middle" x="1590.69" y="-509.65" font-family="Times,serif" font-size="14.00">O</text>
</g>
<!-- 1&#45;&gt;2 -->
<g id="edge150" class="edge">
<title>1&#45;&gt;2</title>
<path fill="none" stroke="black" d="M1257.64,-656.03C1312.61,-592.98 1457.74,-447.48 1598.19,-484.85 1722.99,-518.05 1849.64,-607.85 1909.75,-654.63"/>
<polygon fill="black" stroke="black" points="1907.75,-657.51 1917.78,-660.93 1912.07,-652 1907.75,-657.51"/>
<text text-anchor="middle" x="1590.69" y="-488.65" font-family="Times,serif" font-size="14.00">i</text>
</g>
<!-- 1&#45;&gt;2 -->
<g id="edge152" class="edge">
<title>1&#45;&gt;2</title>
<path fill="none" stroke="black" d="M1255.89,-654.86C1309,-586.12 1453.83,-421.99 1598.19,-463.85 1726.24,-500.97 1852.36,-600.98 1911.24,-652.39"/>
<polygon fill="black" stroke="black" points="1909.28,-655.32 1919.1,-659.31 1913.91,-650.07 1909.28,-655.32"/>
<text text-anchor="middle" x="1590.69" y="-467.65" font-family="Times,serif" font-size="14.00">x</text>
</g>
<!-- 1&#45;&gt;2 -->
<g id="edge153" class="edge">
<title>1&#45;&gt;2</title>
<path fill="none" stroke="black" d="M1254.39,-653.72C1305.71,-579.37 1449.86,-396.45 1598.19,-442.85 1729.96,-484.07 1855.65,-594.78 1913.09,-650.64"/>
<polygon fill="black" stroke="black" points="1910.82,-653.32 1920.41,-657.82 1915.72,-648.32 1910.82,-653.32"/>
<text text-anchor="middle" x="1590.69" y="-446.65" font-family="Times,serif" font-size="14.00">L</text>
</g>
<!-- 1&#45;&gt;2 -->
<g id="edge154" class="edge">
<title>1&#45;&gt;2</title>
<path fill="none" stroke="black" d="M1258.33,-656.81C1310.23,-599.78 1440.88,-468.52 1583.19,-420.85 1730.4,-371.53 1868.51,-559.16 1922.15,-644.1"/>
<polygon fill="black" stroke="black" points="1919.26,-646.09 1927.52,-652.72 1925.2,-642.38 1919.26,-646.09"/>
<text text-anchor="middle" x="1590.69" y="-424.65" font-family="Times,serif" font-size="14.00">v</text>
</g>
<!-- 1&#45;&gt;2 -->
<g id="edge155" class="edge">
<title>1&#45;&gt;2</title>
<path fill="none" stroke="black" d="M1257.04,-655.53C1307.37,-594.34 1436.7,-451.12 1583.19,-398.85 1734.99,-344.68 1872.23,-551.99 1923.92,-643"/>
<polygon fill="black" stroke="black" points="1921,-644.94 1928.94,-651.95 1927.1,-641.52 1921,-644.94"/>
<text text-anchor="middle" x="1590.69" y="-402.65" font-family="Times,serif" font-size="14.00">V</text>
</g>
<!-- 1&#45;&gt;2 -->
<g id="edge156" class="edge">
<title>1&#45;&gt;2</title>
<path fill="none" stroke="black" d="M1255.76,-654.38C1304.47,-589.15 1432.32,-433.82 1583.19,-376.85 1739.77,-317.71 1875.91,-545.29 1925.61,-642.15"/>
<polygon fill="black" stroke="black" points="1922.5,-643.76 1930.15,-651.1 1928.75,-640.6 1922.5,-643.76"/>
<text text-anchor="middle" x="1590.69" y="-380.65" font-family="Times,serif" font-size="14.00">Y</text>
</g>
<!-- 1&#45;&gt;2 -->
<g id="edge157" class="edge">
<title>1&#45;&gt;2</title>
<path fill="none" stroke="black" d="M1254.33,-653.63C1301.25,-584.63 1427.57,-416.7 1583.19,-354.85 1744.6,-290.69 1879.32,-538.65 1927.09,-641.27"/>
<polygon fill="black" stroke="black" points="1923.95,-642.82 1931.31,-650.44 1930.31,-639.89 1923.95,-642.82"/>
<text text-anchor="middle" x="1590.69" y="-358.65" font-family="Times,serif" font-size="14.00">j</text>
</g>
<!-- 1&#45;&gt;2 -->
<g id="edge159" class="edge">
<title>1&#45;&gt;2</title>
<path fill="none" stroke="black" d="M1253.09,-652.67C1298.26,-579.67 1422.67,-398.81 1583.19,-331.85 1749.79,-262.35 1882.79,-532.05 1928.55,-640.51"/>
<polygon fill="black" stroke="black" points="1925.37,-642 1932.45,-649.88 1931.84,-639.3 1925.37,-642"/>
<text text-anchor="middle" x="1590.69" y="-335.65" font-family="Times,serif" font-size="14.00">N</text>
</g>
<!-- 1&#45;&gt;2 -->
<g id="edge160" class="edge">
<title>1&#45;&gt;2</title>
<path fill="none" stroke="black" d="M1251.72,-652.12C1294.96,-575.45 1417.38,-381.11 1583.19,-308.85 1755.19,-233.88 1886.24,-525.96 1929.95,-640.01"/>
<polygon fill="black" stroke="black" points="1926.73,-641.4 1933.54,-649.51 1933.28,-638.92 1926.73,-641.4"/>
<text text-anchor="middle" x="1590.69" y="-312.65" font-family="Times,serif" font-size="14.00">1</text>
</g>
<!-- 1&#45;&gt;2 -->
<g id="edge162" class="edge">
<title>1&#45;&gt;2</title>
<path fill="none" stroke="black" d="M1245.84,-649.31C1283.74,-538.34 1415.44,-202.81 1598.19,-285.85 1762.96,-360.72 1880.17,-556.61 1925.25,-642.49"/>
<polygon fill="black" stroke="black" points="1922.17,-644.16 1929.89,-651.43 1928.39,-640.94 1922.17,-644.16"/>
<text text-anchor="middle" x="1590.69" y="-289.65" font-family="Times,serif" font-size="14.00">H</text>
</g>
<!-- 1&#45;&gt;2 -->
<g id="edge163" class="edge">
<title>1&#45;&gt;2</title>
<path fill="none" stroke="black" d="M1244.95,-648.83C1280.97,-532.74 1409.74,-172.91 1598.19,-261.85 1768.53,-342.24 1883.62,-551.64 1926.74,-641.68"/>
<polygon fill="black" stroke="black" points="1923.6,-643.24 1931.04,-650.78 1929.93,-640.24 1923.6,-643.24"/>
<text text-anchor="middle" x="1590.69" y="-265.65" font-family="Times,serif" font-size="14.00">p</text>
</g>
<!-- 1&#45;&gt;2 -->
<g id="edge164" class="edge">
<title>1&#45;&gt;2</title>
<path fill="none" stroke="black" d="M1244.1,-648.49C1278.24,-527.54 1403.87,-142.91 1598.19,-237.85 1774.26,-323.87 1887.05,-546.97 1928.18,-641.03"/>
<polygon fill="black" stroke="black" points="1924.98,-642.46 1932.16,-650.25 1931.41,-639.68 1924.98,-642.46"/>
<text text-anchor="middle" x="1590.69" y="-241.65" font-family="Times,serif" font-size="14.00">f</text>
</g>
<!-- 1&#45;&gt;2 -->
<g id="edge165" class="edge">
<title>1&#45;&gt;2</title>
<path fill="none" stroke="black" d="M1243.28,-648.3C1275.54,-522.72 1397.86,-112.82 1598.19,-213.85 1780.14,-305.6 1890.46,-542.61 1929.57,-640.53"/>
<polygon fill="black" stroke="black" points="1926.31,-641.82 1933.24,-649.84 1932.83,-639.25 1926.31,-641.82"/>
<text text-anchor="middle" x="1590.69" y="-217.65" font-family="Times,serif" font-size="14.00">r</text>
</g>
<!-- 1&#45;&gt;2 -->
<g id="edge166" class="edge">
<title>1&#45;&gt;2</title>
<path fill="none" stroke="black" d="M1242.49,-648.18C1272.82,-517.97 1391.48,-81.4 1598.19,-188.85 1786.17,-286.56 1893.71,-537.77 1930.82,-639.79"/>
<polygon fill="black" stroke="black" points="1927.63,-641.24 1934.3,-649.47 1934.21,-638.88 1927.63,-641.24"/>
<text text-anchor="middle" x="1590.69" y="-192.65" font-family="Times,serif" font-size="14.00">m</text>
</g>
<!-- 1&#45;&gt;2 -->
<g id="edge167" class="edge">
<title>1&#45;&gt;2</title>
<path fill="none" stroke="black" d="M1241.74,-648.2C1270.15,-513.64 1384.95,-49.88 1598.19,-163.85 1792.3,-267.6 1896.89,-533.09 1932.02,-639.12"/>
<polygon fill="black" stroke="black" points="1928.77,-640.45 1935.2,-648.87 1935.42,-638.28 1928.77,-640.45"/>
<text text-anchor="middle" x="1590.69" y="-167.65" font-family="Times,serif" font-size="14.00">C</text>
</g>
<!-- 1&#45;&gt;2 -->
<g id="edge168" class="edge">
<title>1&#45;&gt;2</title>
<path fill="none" stroke="black" d="M1241.11,-647.82C1267.71,-508.29 1378.32,-17.16 1598.19,-137.85 1799.01,-248.08 1900.37,-529.05 1933.31,-638.88"/>
<polygon fill="black" stroke="black" points="1930.01,-640.06 1936.2,-648.66 1936.72,-638.08 1930.01,-640.06"/>
<text text-anchor="middle" x="1590.69" y="-141.65" font-family="Times,serif" font-size="14.00">s</text>
</g>
<!-- 1&#45;&gt;2 -->
<g id="edge169" class="edge">
<title>1&#45;&gt;2</title>
<path fill="none" stroke="black" d="M1240.59,-648C1265.76,-505.53 1373.18,6.92 1598.19,-118.85 1804.07,-233.93 1902.95,-526.53 1934.26,-638.93"/>
<polygon fill="black" stroke="black" points="1930.89,-639.88 1936.91,-648.6 1937.64,-638.03 1930.89,-639.88"/>
<text text-anchor="middle" x="1590.69" y="-122.65" font-family="Times,serif" font-size="14.00">8</text>
</g>
<!-- 1&#45;&gt;2 -->
<g id="edge171" class="edge">
<title>1&#45;&gt;2</title>
<path fill="none" stroke="black" d="M1240.18,-647.76C1264.08,-501.81 1368.23,30.91 1598.19,-99.85 1808.74,-219.57 1905.08,-522.87 1934.97,-638.3"/>
<polygon fill="black" stroke="black" points="1931.64,-639.4 1937.5,-648.22 1938.42,-637.67 1931.64,-639.4"/>
<text text-anchor="middle" x="1590.69" y="-103.65" font-family="Times,serif" font-size="14.00">_</text>
</g>
<!-- 1&#45;&gt;2 -->
<g id="edge172" class="edge">
<title>1&#45;&gt;2</title>
<path fill="none" stroke="black" d="M1239.78,-647.58C1262.42,-498.25 1363.23,54.93 1598.19,-80.85 1813.94,-205.53 1907.6,-520.68 1935.86,-638.49"/>
<polygon fill="black" stroke="black" points="1932.46,-639.34 1938.16,-648.28 1939.28,-637.74 1932.46,-639.34"/>
<text text-anchor="middle" x="1590.69" y="-84.65" font-family="Times,serif" font-size="14.00">g</text>
</g>
<!-- 1&#45;&gt;2 -->
<g id="edge173" class="edge">
<title>1&#45;&gt;2</title>
<path fill="none" stroke="black" d="M1239.36,-647.7C1260.67,-495.49 1358.03,79.07 1598.19,-61.85 1818.73,-191.26 1909.69,-517.26 1936.53,-637.97"/>
<polygon fill="black" stroke="black" points="1933.17,-638.97 1938.72,-647.99 1940,-637.47 1933.17,-638.97"/>
<text text-anchor="middle" x="1590.69" y="-65.65" font-family="Times,serif" font-size="14.00">R</text>
</g>
<!-- 1&#45;&gt;2 -->
<g id="edge174" class="edge">
<title>1&#45;&gt;2</title>
<path fill="none" stroke="black" d="M1238.99,-647.62C1259.06,-492.28 1352.91,103.18 1598.19,-42.85 1823.79,-177.17 1911.94,-514.63 1937.27,-637.87"/>
<polygon fill="black" stroke="black" points="1933.85,-638.63 1939.25,-647.74 1940.71,-637.25 1933.85,-638.63"/>
<text text-anchor="middle" x="1590.69" y="-46.65" font-family="Times,serif" font-size="14.00">G</text>
</g>
<!-- 1&#45;&gt;2 -->
<g id="edge175" class="edge">
<title>1&#45;&gt;2</title>
<path fill="none" stroke="black" d="M1238.64,-647.6C1257.47,-489.23 1347.74,127.33 1598.19,-23.85 1828.95,-163.14 1914.18,-512.25 1937.99,-637.89"/>
<polygon fill="black" stroke="black" points="1934.59,-638.75 1939.85,-647.95 1941.47,-637.47 1934.59,-638.75"/>
<text text-anchor="middle" x="1590.69" y="-27.65" font-family="Times,serif" font-size="14.00">E</text>
</g>
<!-- __start__ -->
<g id="node3" class="node">
<title>__start__</title>
</g>
<!-- 0 -->
<g id="node4" class="node">
<title>0</title>
<ellipse fill="none" stroke="black" cx="626.69" cy="-683.85" rx="18" ry="18"/>
<text text-anchor="middle" x="626.69" y="-680.15" font-family="Times,serif" font-size="14.00">0</text>
</g>
<!-- __start__&#45;&gt;0 -->
<g id="edge1" class="edge">
<title>__start__&#45;&gt;0</title>
<path fill="none" stroke="black" d="M182.91,-683.85C264.69,-683.85 514.63,-683.85 598.17,-683.85"/>
<polygon fill="black" stroke="black" points="598.38,-687.35 608.38,-683.85 598.38,-680.35 598.38,-687.35"/>
</g>
<!-- 0&#45;&gt;1 -->
<g id="edge45" class="edge">
<title>0&#45;&gt;1</title>
<path fill="none" stroke="black" d="M629.27,-702.04C640.31,-824.36 710.11,-1525.64 869.19,-1649.85 1188.43,-1899.11 1227.31,-955.09 1232.03,-730.69"/>
<polygon fill="black" stroke="black" points="1235.53,-730.63 1232.23,-720.56 1228.54,-730.49 1235.53,-730.63"/>
<text text-anchor="middle" x="876.69" y="-1653.65" font-family="Times,serif" font-size="14.00">C</text>
</g>
<!-- 0&#45;&gt;1 -->
<g id="edge47" class="edge">
<title>0&#45;&gt;1</title>
<path fill="none" stroke="black" d="M629.43,-701.72C641.4,-820.35 715.58,-1493.1 869.19,-1611.85 1177.79,-1850.42 1224.76,-949.2 1231.57,-730.58"/>
<polygon fill="black" stroke="black" points="1235.08,-730.5 1231.88,-720.4 1228.08,-730.29 1235.08,-730.5"/>
<text text-anchor="middle" x="876.69" y="-1615.65" font-family="Times,serif" font-size="14.00">Q</text>
</g>
<!-- 0&#45;&gt;1 -->
<g id="edge48" class="edge">
<title>0&#45;&gt;1</title>
<path fill="none" stroke="black" d="M629.64,-701.74C642.68,-817.61 721.19,-1460.66 869.19,-1573.85 1167.09,-1801.69 1222.08,-943.84 1231.07,-730.71"/>
<polygon fill="black" stroke="black" points="1234.58,-730.61 1231.49,-720.47 1227.59,-730.32 1234.58,-730.61"/>
<text text-anchor="middle" x="876.69" y="-1577.65" font-family="Times,serif" font-size="14.00">D</text>
</g>
<!-- 0&#45;&gt;1 -->
<g id="edge51" class="edge">
<title>0&#45;&gt;1</title>
<path fill="none" stroke="black" d="M629.86,-701.71C643.99,-814.62 726.76,-1428.18 869.19,-1535.85 1156.52,-1753.06 1219.32,-937.98 1230.53,-730.69"/>
<polygon fill="black" stroke="black" points="1234.04,-730.61 1231.07,-720.44 1227.05,-730.24 1234.04,-730.61"/>
<text text-anchor="middle" x="876.69" y="-1539.65" font-family="Times,serif" font-size="14.00">M</text>
</g>
<!-- 0&#45;&gt;1 -->
<g id="edge52" class="edge">
<title>0&#45;&gt;1</title>
<path fill="none" stroke="black" d="M630.09,-701.63C645.34,-811.4 732.3,-1395.68 869.19,-1497.85 1146.09,-1704.53 1216.48,-931.64 1229.96,-730.54"/>
<polygon fill="black" stroke="black" points="1233.47,-730.51 1230.63,-720.3 1226.48,-730.05 1233.47,-730.51"/>
<text text-anchor="middle" x="876.69" y="-1501.65" font-family="Times,serif" font-size="14.00">J</text>
</g>
<!-- 0&#45;&gt;1 -->
<g id="edge55" class="edge">
<title>0&#45;&gt;1</title>
<path fill="none" stroke="black" d="M630.34,-701.49C646.72,-807.94 737.8,-1363.13 869.19,-1459.85 1135.65,-1655.99 1213.48,-925.61 1229.32,-730.56"/>
<polygon fill="black" stroke="black" points="1232.82,-730.59 1230.13,-720.34 1225.85,-730.03 1232.82,-730.59"/>
<text text-anchor="middle" x="876.69" y="-1463.65" font-family="Times,serif" font-size="14.00">g</text>
</g>
<!-- 0&#45;&gt;1 -->
<g id="edge56" class="edge">
<title>0&#45;&gt;1</title>
<path fill="none" stroke="black" d="M630.65,-701.64C648.34,-805.38 743.39,-1330.65 869.19,-1421.85 1125.39,-1607.58 1210.39,-919.02 1228.63,-730.4"/>
<polygon fill="black" stroke="black" points="1232.13,-730.54 1229.59,-720.25 1225.16,-729.88 1232.13,-730.54"/>
<text text-anchor="middle" x="876.69" y="-1425.65" font-family="Times,serif" font-size="14.00">P</text>
</g>
<!-- 0&#45;&gt;1 -->
<g id="edge59" class="edge">
<title>0&#45;&gt;1</title>
<path fill="none" stroke="black" d="M627.14,-701.93C625.45,-794.16 631.29,-1214.27 869.19,-1383.85 1115.16,-1559.19 1207.13,-912.59 1227.86,-730.38"/>
<polygon fill="black" stroke="black" points="1231.36,-730.63 1228.99,-720.3 1224.4,-729.85 1231.36,-730.63"/>
<text text-anchor="middle" x="876.69" y="-1387.65" font-family="Times,serif" font-size="14.00">L</text>
</g>
<!-- 0&#45;&gt;1 -->
<g id="edge60" class="edge">
<title>0&#45;&gt;1</title>
<path fill="none" stroke="black" d="M627.52,-701.86C627.81,-791.02 642.14,-1186.99 869.19,-1345.85 1105.13,-1510.93 1203.78,-905.52 1227.04,-730.14"/>
<polygon fill="black" stroke="black" points="1230.52,-730.55 1228.35,-720.18 1223.58,-729.65 1230.52,-730.55"/>
<text text-anchor="middle" x="876.69" y="-1349.65" font-family="Times,serif" font-size="14.00">i</text>
</g>
<!-- 0&#45;&gt;1 -->
<g id="edge61" class="edge">
<title>0&#45;&gt;1</title>
<path fill="none" stroke="black" d="M627.95,-702C630.31,-788.39 653.1,-1159.77 869.19,-1307.85 1095.21,-1462.73 1200.24,-898.38 1226.13,-729.95"/>
<polygon fill="black" stroke="black" points="1229.62,-730.31 1227.66,-719.9 1222.7,-729.26 1229.62,-730.31"/>
<text text-anchor="middle" x="876.69" y="-1311.65" font-family="Times,serif" font-size="14.00">O</text>
</g>
<!-- 0&#45;&gt;1 -->
<g id="edge62" class="edge">
<title>0&#45;&gt;1</title>
<path fill="none" stroke="black" d="M628.43,-702.04C632.94,-785.37 663.91,-1132.42 869.19,-1269.85 1085.29,-1414.53 1196.38,-891.72 1225.07,-730.05"/>
<polygon fill="black" stroke="black" points="1228.56,-730.39 1226.84,-719.94 1221.67,-729.18 1228.56,-730.39"/>
<text text-anchor="middle" x="876.69" y="-1273.65" font-family="Times,serif" font-size="14.00">s</text>
</g>
<!-- 0&#45;&gt;1 -->
<g id="edge65" class="edge">
<title>0&#45;&gt;1</title>
<path fill="none" stroke="black" d="M628.96,-701.96C635.69,-781.93 674.55,-1104.92 869.19,-1231.85 1075.55,-1366.42 1192.29,-884.74 1223.87,-730.12"/>
<polygon fill="black" stroke="black" points="1227.37,-730.48 1225.91,-719.99 1220.51,-729.1 1227.37,-730.48"/>
<text text-anchor="middle" x="876.69" y="-1243.65" font-family="Times,serif" font-size="14.00">A</text>
</g>
<!-- 0&#45;&gt;1 -->
<g id="edge67" class="edge">
<title>0&#45;&gt;1</title>
<path fill="none" stroke="black" d="M629.55,-701.77C638.55,-778.08 685,-1077.27 869.19,-1193.85 1066.35,-1318.63 1188.39,-875.82 1222.71,-729.34"/>
<polygon fill="black" stroke="black" points="1226.18,-729.85 1225.03,-719.32 1219.36,-728.27 1226.18,-729.85"/>
<text text-anchor="middle" x="876.69" y="-1204.65" font-family="Times,serif" font-size="14.00">t</text>
</g>
<!-- 0&#45;&gt;1 -->
<g id="edge68" class="edge">
<title>0&#45;&gt;1</title>
<path fill="none" stroke="black" d="M630.26,-701.95C641.75,-775.06 695.65,-1049.7 869.19,-1155.85 1057.05,-1270.75 1183.87,-868 1221.23,-729.21"/>
<polygon fill="black" stroke="black" points="1224.68,-729.86 1223.87,-719.29 1217.91,-728.06 1224.68,-729.86"/>
<text text-anchor="middle" x="876.69" y="-1166.65" font-family="Times,serif" font-size="14.00">n</text>
</g>
<!-- 0&#45;&gt;1 -->
<g id="edge70" class="edge">
<title>0&#45;&gt;1</title>
<path fill="none" stroke="black" d="M630.97,-701.48C644.84,-770.29 705.66,-1021.7 869.19,-1117.85 1048.16,-1223.08 1179.28,-859.12 1219.65,-728.65"/>
<polygon fill="black" stroke="black" points="1223.04,-729.53 1222.62,-718.94 1216.35,-727.48 1223.04,-729.53"/>
<text text-anchor="middle" x="876.69" y="-1127.65" font-family="Times,serif" font-size="14.00">r</text>
</g>
<!-- 0&#45;&gt;1 -->
<g id="edge71" class="edge">
<title>0&#45;&gt;1</title>
<path fill="none" stroke="black" d="M631.84,-701.3C648.31,-766.13 715.76,-993.71 869.19,-1079.85 1039.55,-1175.5 1174.38,-849.83 1217.85,-728.01"/>
<polygon fill="black" stroke="black" points="1221.28,-728.82 1221.3,-718.23 1214.67,-726.5 1221.28,-728.82"/>
<text text-anchor="middle" x="876.69" y="-1089.65" font-family="Times,serif" font-size="14.00">c</text>
</g>
<!-- 0&#45;&gt;1 -->
<g id="edge72" class="edge">
<title>0&#45;&gt;1</title>
<path fill="none" stroke="black" d="M632.79,-700.92C651.89,-761.35 725.54,-965.47 869.19,-1041.85 1031.24,-1128.01 1169.1,-840.14 1215.77,-727.29"/>
<polygon fill="black" stroke="black" points="1219.07,-728.46 1219.61,-717.88 1212.59,-725.81 1219.07,-728.46"/>
<text text-anchor="middle" x="876.69" y="-1050.65" font-family="Times,serif" font-size="14.00">m</text>
</g>
<!-- 0&#45;&gt;1 -->
<g id="edge78" class="edge">
<title>0&#45;&gt;1</title>
<path fill="none" stroke="black" d="M632,-701.3C651.41,-775.89 736.23,-1061.47 884.19,-1003.85 1031.84,-946.34 1154.85,-793.79 1206.52,-722.1"/>
<polygon fill="black" stroke="black" points="1209.51,-723.94 1212.46,-713.77 1203.81,-719.87 1209.51,-723.94"/>
<text text-anchor="middle" x="876.69" y="-1010.65" font-family="Times,serif" font-size="14.00">K</text>
</g>
<!-- 0&#45;&gt;1 -->
<g id="edge79" class="edge">
<title>0&#45;&gt;1</title>
<path fill="none" stroke="black" d="M633.03,-700.96C655.33,-769.03 746.3,-1014.64 884.19,-965.85 1024.2,-916.29 1149.13,-783.91 1203.66,-719.73"/>
<polygon fill="black" stroke="black" points="1206.5,-721.78 1210.26,-711.88 1201.15,-717.27 1206.5,-721.78"/>
<text text-anchor="middle" x="876.69" y="-971.65" font-family="Times,serif" font-size="14.00">R</text>
</g>
<!-- 0&#45;&gt;1 -->
<g id="edge80" class="edge">
<title>0&#45;&gt;1</title>
<path fill="none" stroke="black" d="M634.34,-700.62C659.8,-761.93 756.11,-968.23 884.19,-927.85 1016.99,-885.98 1143.2,-773.44 1200.5,-717.03"/>
<polygon fill="black" stroke="black" points="1203.17,-719.31 1207.8,-709.78 1198.24,-714.35 1203.17,-719.31"/>
<text text-anchor="middle" x="876.69" y="-933.65" font-family="Times,serif" font-size="14.00">V</text>
</g>
<!-- 0&#45;&gt;1 -->
<g id="edge81" class="edge">
<title>0&#45;&gt;1</title>
<path fill="none" stroke="black" d="M638.19,-698.1C668.54,-737.92 761.11,-850.02 869.19,-889.85 1002.71,-939.06 1145.07,-791.86 1204.3,-720.39"/>
<polygon fill="black" stroke="black" points="1207.15,-722.43 1210.77,-712.48 1201.73,-718 1207.15,-722.43"/>
<text text-anchor="middle" x="876.69" y="-896.65" font-family="Times,serif" font-size="14.00">F</text>
</g>
<!-- 0&#45;&gt;1 -->
<g id="edge82" class="edge">
<title>0&#45;&gt;1</title>
<path fill="none" stroke="black" d="M639.75,-696.48C672.67,-729.89 768.31,-820.21 869.19,-851.85 996.99,-891.93 1138.32,-776.52 1200.42,-716.96"/>
<polygon fill="black" stroke="black" points="1202.86,-719.47 1207.59,-709.99 1197.98,-714.45 1202.86,-719.47"/>
<text text-anchor="middle" x="876.69" y="-857.65" font-family="Times,serif" font-size="14.00">Y</text>
</g>
<!-- 0&#45;&gt;1 -->
<g id="edge84" class="edge">
<title>0&#45;&gt;1</title>
<path fill="none" stroke="black" d="M641.35,-694.43C676.61,-720.98 774.53,-789.99 869.19,-813.85 992.02,-844.81 1131.63,-759.18 1196.28,-712.25"/>
<polygon fill="black" stroke="black" points="1198.55,-714.93 1204.52,-706.18 1194.4,-709.29 1198.55,-714.93"/>
<text text-anchor="middle" x="876.69" y="-819.65" font-family="Times,serif" font-size="14.00">j</text>
</g>
<!-- 0&#45;&gt;1 -->
<g id="edge87" class="edge">
<title>0&#45;&gt;1</title>
<path fill="none" stroke="black" d="M642.93,-691.92C680.24,-711.17 779.61,-759.36 869.19,-775.85 988.11,-797.73 1125.85,-739.41 1192.47,-705.77"/>
<polygon fill="black" stroke="black" points="1194.09,-708.87 1201.39,-701.19 1190.89,-702.64 1194.09,-708.87"/>
<text text-anchor="middle" x="876.69" y="-780.65" font-family="Times,serif" font-size="14.00">p</text>
</g>
<!-- 0&#45;&gt;1 -->
<g id="edge88" class="edge">
<title>0&#45;&gt;1</title>
<path fill="none" stroke="black" d="M644.16,-688.85C682.93,-700.35 783.14,-728.34 869.19,-737.85 985,-750.64 1120.56,-717.7 1188.76,-697.76"/>
<polygon fill="black" stroke="black" points="1190.13,-701.01 1198.72,-694.81 1188.13,-694.3 1190.13,-701.01"/>
<text text-anchor="middle" x="876.69" y="-741.65" font-family="Times,serif" font-size="14.00">W</text>
</g>
<!-- 0&#45;&gt;1 -->
<g id="edge89" class="edge">
<title>0&#45;&gt;1</title>
<path fill="none" stroke="black" d="M644.65,-685.36C684.04,-688.78 784.77,-697.05 869.19,-699.85 983.58,-703.63 1118.15,-694.04 1187.02,-688.12"/>
<polygon fill="black" stroke="black" points="1187.44,-691.59 1197.09,-687.23 1186.83,-684.62 1187.44,-691.59"/>
<text text-anchor="middle" x="876.69" y="-703.65" font-family="Times,serif" font-size="14.00">e</text>
</g>
<!-- 0&#45;&gt;1 -->
<g id="edge90" class="edge">
<title>0&#45;&gt;1</title>
<path fill="none" stroke="black" d="M644.96,-683.56C684.6,-682.91 785.12,-681.37 869.19,-680.85 983.54,-680.14 1118.12,-681.93 1187.01,-683.05"/>
<polygon fill="black" stroke="black" points="1187.03,-686.55 1197.08,-683.21 1187.14,-679.55 1187.03,-686.55"/>
<text text-anchor="middle" x="876.69" y="-684.65" font-family="Times,serif" font-size="14.00">X</text>
</g>
<!-- 0&#45;&gt;1 -->
<g id="edge93" class="edge">
<title>0&#45;&gt;1</title>
<path fill="none" stroke="black" d="M644.63,-681.77C683.98,-677.06 784.65,-665.69 869.19,-661.85 983.78,-656.64 1118.53,-669.86 1187.3,-678.01"/>
<polygon fill="black" stroke="black" points="1187.01,-681.5 1197.36,-679.22 1187.85,-674.55 1187.01,-681.5"/>
<text text-anchor="middle" x="876.69" y="-665.65" font-family="Times,serif" font-size="14.00">x</text>
</g>
<!-- 0&#45;&gt;1 -->
<g id="edge94" class="edge">
<title>0&#45;&gt;1</title>
<path fill="none" stroke="black" d="M644.54,-679.98C683.71,-671.21 784.01,-650.03 869.19,-642.85 984.46,-633.13 1119.72,-658 1188.17,-673.15"/>
<polygon fill="black" stroke="black" points="1187.64,-676.62 1198.17,-675.41 1189.18,-669.79 1187.64,-676.62"/>
<text text-anchor="middle" x="876.69" y="-646.65" font-family="Times,serif" font-size="14.00">U</text>
</g>
<!-- 0&#45;&gt;1 -->
<g id="edge95" class="edge">
<title>0&#45;&gt;1</title>
<path fill="none" stroke="black" d="M644.11,-678.28C682.78,-665.52 782.78,-634.42 869.19,-623.85 985.37,-609.63 1121.19,-646.4 1189.21,-668.52"/>
<polygon fill="black" stroke="black" points="1188.15,-671.86 1198.74,-671.68 1190.35,-665.21 1188.15,-671.86"/>
<text text-anchor="middle" x="876.69" y="-627.65" font-family="Times,serif" font-size="14.00">q</text>
</g>
<!-- 0&#45;&gt;1 -->
<g id="edge98" class="edge">
<title>0&#45;&gt;1</title>
<path fill="none" stroke="black" d="M643.35,-676.69C681.17,-659.86 780.89,-618.09 869.19,-603.85 986.84,-584.87 1123.63,-634.76 1190.92,-664.13"/>
<polygon fill="black" stroke="black" points="1189.78,-667.45 1200.34,-668.31 1192.62,-661.06 1189.78,-667.45"/>
<text text-anchor="middle" x="876.69" y="-607.65" font-family="Times,serif" font-size="14.00">S</text>
</g>
<!-- 0&#45;&gt;1 -->
<g id="edge99" class="edge">
<title>0&#45;&gt;1</title>
<path fill="none" stroke="black" d="M642.56,-675.23C679.43,-654.42 778.61,-601.86 869.19,-583.85 988.74,-560.07 1126.73,-623.82 1193.05,-660.32"/>
<polygon fill="black" stroke="black" points="1191.49,-663.46 1201.93,-665.28 1194.9,-657.35 1191.49,-663.46"/>
<text text-anchor="middle" x="876.69" y="-587.65" font-family="Times,serif" font-size="14.00">h</text>
</g>
<!-- 0&#45;&gt;1 -->
<g id="edge100" class="edge">
<title>0&#45;&gt;1</title>
<path fill="none" stroke="black" d="M641.76,-673.89C677.58,-649.23 775.98,-585.73 869.19,-563.85 990.86,-535.28 1129.92,-613.44 1195.17,-656.94"/>
<polygon fill="black" stroke="black" points="1193.26,-659.87 1203.51,-662.58 1197.18,-654.07 1193.26,-659.87"/>
<text text-anchor="middle" x="876.69" y="-567.65" font-family="Times,serif" font-size="14.00">d</text>
</g>
<!-- 0&#45;&gt;1 -->
<g id="edge101" class="edge">
<title>0&#45;&gt;1</title>
<path fill="none" stroke="black" d="M640.93,-672.59C675.57,-643.98 772.88,-568.9 869.19,-542.85 993.31,-509.26 1133.39,-603.17 1197.39,-653.84"/>
<polygon fill="black" stroke="black" points="1195.55,-656.86 1205.54,-660.39 1199.93,-651.4 1195.55,-656.86"/>
<text text-anchor="middle" x="876.69" y="-546.65" font-family="Times,serif" font-size="14.00">a</text>
</g>
<!-- 0&#45;&gt;1 -->
<g id="edge102" class="edge">
<title>0&#45;&gt;1</title>
<path fill="none" stroke="black" d="M640.34,-671.19C673.94,-638.57 769.69,-552.13 869.19,-521.85 995.96,-483.26 1136.81,-593.43 1199.48,-651.11"/>
<polygon fill="black" stroke="black" points="1197.39,-653.94 1207.09,-658.21 1202.17,-648.83 1197.39,-653.94"/>
<text text-anchor="middle" x="876.69" y="-525.65" font-family="Times,serif" font-size="14.00">k</text>
</g>
<!-- 0&#45;&gt;1 -->
<g id="edge103" class="edge">
<title>0&#45;&gt;1</title>
<path fill="none" stroke="black" d="M639.03,-670.64C670.86,-634.73 765.47,-535.7 869.19,-500.85 999.19,-457.16 1141.03,-584.93 1202.01,-649.27"/>
<polygon fill="black" stroke="black" points="1199.66,-651.87 1209.05,-656.79 1204.77,-647.09 1199.66,-651.87"/>
<text text-anchor="middle" x="876.69" y="-504.65" font-family="Times,serif" font-size="14.00">f</text>
</g>
<!-- 0&#45;&gt;1 -->
<g id="edge106" class="edge">
<title>0&#45;&gt;1</title>
<path fill="none" stroke="black" d="M638.21,-669.66C668.6,-630.03 761.29,-518.47 869.19,-478.85 1002.45,-429.91 1144.67,-575.99 1204.06,-647.22"/>
<polygon fill="black" stroke="black" points="1201.5,-649.61 1210.55,-655.11 1206.9,-645.16 1201.5,-649.61"/>
<text text-anchor="middle" x="876.69" y="-482.65" font-family="Times,serif" font-size="14.00">b</text>
</g>
<!-- 0&#45;&gt;1 -->
<g id="edge107" class="edge">
<title>0&#45;&gt;1</title>
<path fill="none" stroke="black" d="M634.93,-667.49C661.74,-609.63 760.2,-420.03 884.19,-456.85 1014.02,-495.4 1140.7,-599.33 1199.13,-652.13"/>
<polygon fill="black" stroke="black" points="1196.84,-654.77 1206.59,-658.92 1201.55,-649.6 1196.84,-654.77"/>
<text text-anchor="middle" x="876.69" y="-460.65" font-family="Times,serif" font-size="14.00">l</text>
</g>
<!-- 0&#45;&gt;1 -->
<g id="edge108" class="edge">
<title>0&#45;&gt;1</title>
<path fill="none" stroke="black" d="M634.11,-667.22C659.12,-605.41 754.97,-394.56 884.19,-435.85 1017.55,-478.46 1143.5,-592.82 1200.62,-650.13"/>
<polygon fill="black" stroke="black" points="1198.37,-652.84 1207.89,-657.49 1203.35,-647.92 1198.37,-652.84"/>
<text text-anchor="middle" x="876.69" y="-439.65" font-family="Times,serif" font-size="14.00">E</text>
</g>
<!-- 0&#45;&gt;1 -->
<g id="edge110" class="edge">
<title>0&#45;&gt;1</title>
<path fill="none" stroke="black" d="M633.35,-667.11C656.54,-601.68 749.51,-368.92 884.19,-414.85 1021.54,-461.69 1146.86,-587.03 1202.44,-648.66"/>
<polygon fill="black" stroke="black" points="1199.91,-651.08 1209.18,-656.2 1205.13,-646.41 1199.91,-651.08"/>
<text text-anchor="middle" x="876.69" y="-418.65" font-family="Times,serif" font-size="14.00">y</text>
</g>
<!-- 0&#45;&gt;1 -->
<g id="edge114" class="edge">
<title>0&#45;&gt;1</title>
<path fill="none" stroke="black" d="M632.78,-666.71C654.43,-597.3 744.18,-343.21 884.19,-393.85 1025.44,-444.93 1149.76,-581.01 1203.9,-646.97"/>
<polygon fill="black" stroke="black" points="1201.43,-649.49 1210.45,-655.04 1206.86,-645.07 1201.43,-649.49"/>
<text text-anchor="middle" x="876.69" y="-397.65" font-family="Times,serif" font-size="14.00">B</text>
</g>
<!-- 0&#45;&gt;1 -->
<g id="edge116" class="edge">
<title>0&#45;&gt;1</title>
<path fill="none" stroke="black" d="M632.23,-666.36C652.28,-592.95 738.45,-316.14 884.19,-371.85 1030.33,-427.71 1153.89,-576.21 1206.09,-646.27"/>
<polygon fill="black" stroke="black" points="1203.34,-648.44 1212.09,-654.41 1208.97,-644.28 1203.34,-648.44"/>
<text text-anchor="middle" x="876.69" y="-375.65" font-family="Times,serif" font-size="14.00">N</text>
</g>
<!-- 0&#45;&gt;1 -->
<g id="edge117" class="edge">
<title>0&#45;&gt;1</title>
<path fill="none" stroke="black" d="M633.45,-667.08C654.25,-609.6 731.55,-420.17 869.19,-349.85 1026.24,-269.6 1165.68,-534.2 1214.34,-641.08"/>
<polygon fill="black" stroke="black" points="1211.2,-642.63 1218.5,-650.31 1217.59,-639.76 1211.2,-642.63"/>
<text text-anchor="middle" x="876.69" y="-353.65" font-family="Times,serif" font-size="14.00">z</text>
</g>
<!-- 0&#45;&gt;1 -->
<g id="edge118" class="edge">
<title>0&#45;&gt;1</title>
<path fill="none" stroke="black" d="M632.79,-666.77C651.89,-606.35 725.54,-402.22 869.19,-325.85 1031.24,-239.69 1169.1,-527.55 1215.77,-640.4"/>
<polygon fill="black" stroke="black" points="1212.59,-641.88 1219.61,-649.81 1219.07,-639.23 1212.59,-641.88"/>
<text text-anchor="middle" x="876.69" y="-329.65" font-family="Times,serif" font-size="14.00">Z</text>
</g>
<!-- 0&#45;&gt;1 -->
<g id="edge119" class="edge">
<title>0&#45;&gt;1</title>
<path fill="none" stroke="black" d="M632.17,-666.55C649.58,-603.36 719.37,-384.38 869.19,-301.85 1036.48,-209.69 1172.52,-521.47 1217.14,-639.99"/>
<polygon fill="black" stroke="black" points="1213.92,-641.36 1220.68,-649.52 1220.48,-638.92 1213.92,-641.36"/>
<text text-anchor="middle" x="876.69" y="-305.65" font-family="Times,serif" font-size="14.00">H</text>
</g>
<!-- 0&#45;&gt;1 -->
<g id="edge121" class="edge">
<title>0&#45;&gt;1</title>
<path fill="none" stroke="black" d="M631.56,-666.38C647.25,-600.44 712.82,-365.88 869.19,-276.85 1042.12,-178.37 1176,-515.54 1218.48,-639.72"/>
<polygon fill="black" stroke="black" points="1215.21,-640.97 1221.73,-649.33 1221.84,-638.73 1215.21,-640.97"/>
<text text-anchor="middle" x="876.69" y="-280.65" font-family="Times,serif" font-size="14.00">T</text>
</g>
<!-- 0&#45;&gt;1 -->
<g id="edge123" class="edge">
<title>0&#45;&gt;1</title>
<path fill="none" stroke="black" d="M631,-666.3C644.97,-597.79 706.14,-347.49 869.19,-251.85 1047.78,-147.08 1179.15,-509.38 1219.62,-639.25"/>
<polygon fill="black" stroke="black" points="1216.3,-640.39 1222.59,-648.91 1222.99,-638.33 1216.3,-640.39"/>
<text text-anchor="middle" x="876.69" y="-255.65" font-family="Times,serif" font-size="14.00">G</text>
</g>
<!-- 0&#45;&gt;1 -->
<g id="edge125" class="edge">
<title>0&#45;&gt;1</title>
<path fill="none" stroke="black" d="M630.55,-665.81C643.02,-594.21 699.71,-328.97 869.19,-226.85 1053.64,-115.69 1182.27,-503.7 1220.71,-638.99"/>
<polygon fill="black" stroke="black" points="1217.35,-639.98 1223.43,-648.66 1224.09,-638.08 1217.35,-639.98"/>
<text text-anchor="middle" x="876.69" y="-230.65" font-family="Times,serif" font-size="14.00">I</text>
</g>
<!-- 0&#45;&gt;1 -->
<g id="edge126" class="edge">
<title>0&#45;&gt;1</title>
<path fill="none" stroke="black" d="M630,-666.09C640.66,-592.5 692.34,-310.14 869.19,-200.85 1059.7,-83.1 1185.19,-497.32 1221.67,-638.41"/>
<polygon fill="black" stroke="black" points="1218.37,-639.65 1224.24,-648.48 1225.16,-637.92 1218.37,-639.65"/>
<text text-anchor="middle" x="876.69" y="-204.65" font-family="Times,serif" font-size="14.00">o</text>
</g>
<!-- 0&#45;&gt;1 -->
<g id="edge136" class="edge">
<title>0&#45;&gt;1</title>
<path fill="none" stroke="black" d="M629.56,-665.95C638.62,-589.79 685.25,-291.16 869.19,-174.85 1065.91,-50.44 1188.05,-491.24 1222.57,-637.94"/>
<polygon fill="black" stroke="black" points="1219.24,-639.04 1224.91,-647.99 1226.05,-637.45 1219.24,-639.04"/>
<text text-anchor="middle" x="876.69" y="-178.65" font-family="Times,serif" font-size="14.00">v</text>
</g>
<!-- 0&#45;&gt;1 -->
<g id="edge145" class="edge">
<title>0&#45;&gt;1</title>
<path fill="none" stroke="black" d="M629.15,-665.88C636.62,-587.3 678.06,-272.26 869.19,-148.85 1072.52,-17.54 1191.14,-486.63 1223.56,-638.16"/>
<polygon fill="black" stroke="black" points="1220.16,-639.03 1225.65,-648.09 1227.01,-637.58 1220.16,-639.03"/>
<text text-anchor="middle" x="876.69" y="-152.65" font-family="Times,serif" font-size="14.00">u</text>
</g>
<!-- 0&#45;&gt;1 -->
<g id="edge151" class="edge">
<title>0&#45;&gt;1</title>
<path fill="none" stroke="black" d="M628.75,-665.83C634.62,-584.84 670.53,-252.7 869.19,-121.85 1079.27,16.54 1193.99,-481.08 1224.4,-637.94"/>
<polygon fill="black" stroke="black" points="1220.96,-638.61 1226.28,-647.77 1227.84,-637.29 1220.96,-638.61"/>
<text text-anchor="middle" x="876.69" y="-125.65" font-family="Times,serif" font-size="14.00">w</text>
</g>
<!-- 0&#45;&gt;1 -->
<g id="edge161" class="edge">
<title>0&#45;&gt;1</title>
<path fill="none" stroke="black" d="M628.38,-665.84C632.68,-582.61 662.9,-233.22 869.19,-94.85 1085.96,50.56 1196.58,-474.91 1225.11,-637.41"/>
<polygon fill="black" stroke="black" points="1221.72,-638.32 1226.88,-647.57 1228.62,-637.12 1221.72,-638.32"/>
<text text-anchor="middle" x="876.69" y="-98.65" font-family="Times,serif" font-size="14.00">_</text>
</g>
</g>
</svg>
