<?xml version="1.0" encoding="UTF-8" standalone="no"?>
<!DOCTYPE svg PUBLIC "-//W3C//DTD SVG 1.1//EN"
 "http://www.w3.org/Graphics/SVG/1.1/DTD/svg11.dtd">
<!-- Generated by graphviz version 2.43.0 (0)
 -->
<!-- Title: NFA Pages: 1 -->
<svg width="1263pt" height="2998pt"
 viewBox="0.00 0.00 1262.78 2998.25" xmlns="http://www.w3.org/2000/svg" xmlns:xlink="http://www.w3.org/1999/xlink">
<g id="graph0" class="graph" transform="scale(1 1) rotate(0) translate(4 2994.25)">
<title>NFA</title>
<polygon fill="white" stroke="transparent" points="-4,4 -4,-2994.25 1258.78,-2994.25 1258.78,4 -4,4"/>
<!-- 3 -->
<g id="node1" class="node">
<title>3</title>
<ellipse fill="none" stroke="black" cx="756.78" cy="-620.25" rx="35.18" ry="35.18"/>
<ellipse fill="none" stroke="black" cx="756.78" cy="-620.25" rx="39.19" ry="39.19"/>
<text text-anchor="middle" x="756.78" y="-616.55" font-family="Times,serif" font-size="14.00">3 (0) </text>
</g>
<!-- 4 -->
<g id="node7" class="node">
<title>4</title>
<ellipse fill="none" stroke="black" cx="959.78" cy="-1796.25" rx="18" ry="18"/>
<text text-anchor="middle" x="959.78" y="-1792.55" font-family="Times,serif" font-size="14.00">4</text>
</g>
<!-- 3&#45;&gt;4 -->
<g id="edge23" class="edge">
<title>3&#45;&gt;4</title>
<path fill="none" stroke="black" d="M764.35,-658.7C795.4,-840.39 927.03,-1610.49 953.95,-1768.03"/>
<polygon fill="black" stroke="black" points="950.57,-1769.03 955.71,-1778.29 957.47,-1767.85 950.57,-1769.03"/>
<text text-anchor="middle" x="878.78" y="-1351.05" font-family="Times,serif" font-size="14.00">ε</text>
</g>
<!-- 5 -->
<g id="node2" class="node">
<title>5</title>
<ellipse fill="none" stroke="black" cx="1176.78" cy="-1796.25" rx="35.18" ry="35.18"/>
<ellipse fill="none" stroke="black" cx="1176.78" cy="-1796.25" rx="39.19" ry="39.19"/>
<text text-anchor="middle" x="1176.78" y="-1792.55" font-family="Times,serif" font-size="14.00">5 (0) </text>
</g>
<!-- 5&#45;&gt;3 -->
<g id="edge60" class="edge">
<title>5&#45;&gt;3</title>
<path fill="none" stroke="black" d="M1172.55,-1757.3C1160.46,-1616.5 1115.44,-1134.84 1054.28,-994.25 991.39,-849.68 858.2,-713.41 793.95,-652.96"/>
<polygon fill="black" stroke="black" points="796.16,-650.24 786.46,-645.97 791.38,-655.36 796.16,-650.24"/>
<text text-anchor="middle" x="959.78" y="-860.05" font-family="Times,serif" font-size="14.00">ε</text>
</g>
<!-- __start__ -->
<g id="node3" class="node">
<title>__start__</title>
</g>
<!-- 0 -->
<g id="node4" class="node">
<title>0</title>
<ellipse fill="none" stroke="black" cx="218.78" cy="-620.25" rx="18" ry="18"/>
<text text-anchor="middle" x="218.78" y="-616.55" font-family="Times,serif" font-size="14.00">0</text>
</g>
<!-- __start__&#45;&gt;0 -->
<g id="edge1" class="edge">
<title>__start__&#45;&gt;0</title>
<path fill="none" stroke="black" d="M80.97,-620.25C110.94,-620.25 159.82,-620.25 190.32,-620.25"/>
<polygon fill="black" stroke="black" points="190.65,-623.75 200.65,-620.25 190.65,-616.75 190.65,-623.75"/>
</g>
<!-- 1 -->
<g id="node5" class="node">
<title>1</title>
<ellipse fill="none" stroke="black" cx="378.78" cy="-620.25" rx="18" ry="18"/>
<text text-anchor="middle" x="378.78" y="-616.55" font-family="Times,serif" font-size="14.00">1</text>
</g>
<!-- 0&#45;&gt;1 -->
<g id="edge80" class="edge">
<title>0&#45;&gt;1</title>
<path fill="none" stroke="black" d="M236.99,-620.25C264.29,-620.25 317.78,-620.25 350.4,-620.25"/>
<polygon fill="black" stroke="black" points="350.59,-623.75 360.59,-620.25 350.59,-616.75 350.59,-623.75"/>
<text text-anchor="middle" x="298.78" y="-624.05" font-family="Times,serif" font-size="14.00">ε</text>
</g>
<!-- 2 -->
<g id="node6" class="node">
<title>2</title>
<ellipse fill="none" stroke="black" cx="553.78" cy="-620.25" rx="18" ry="18"/>
<text text-anchor="middle" x="553.78" y="-616.55" font-family="Times,serif" font-size="14.00">2</text>
</g>
<!-- 1&#45;&gt;2 -->
<g id="edge2" class="edge">
<title>1&#45;&gt;2</title>
<path fill="none" stroke="black" d="M380.08,-638.25C382.55,-775.82 401.19,-1653.64 474.28,-1586.25 544.95,-1521.08 552,-802.44 552.7,-648.97"/>
<polygon fill="black" stroke="black" points="556.2,-648.55 552.74,-638.53 549.2,-648.52 556.2,-648.55"/>
<text text-anchor="middle" x="466.78" y="-1593.05" font-family="Times,serif" font-size="14.00">_</text>
</g>
<!-- 1&#45;&gt;2 -->
<g id="edge5" class="edge">
<title>1&#45;&gt;2</title>
<path fill="none" stroke="black" d="M379.9,-638.61C380.9,-763.44 389.67,-1484.34 459.28,-1548.25 464.19,-1552.75 469.37,-1552.76 474.28,-1548.25 542.15,-1485.87 551.39,-798.24 552.6,-648.8"/>
<polygon fill="black" stroke="black" points="556.1,-648.63 552.68,-638.61 549.1,-648.58 556.1,-648.63"/>
<text text-anchor="middle" x="466.78" y="-1555.05" font-family="Times,serif" font-size="14.00">t</text>
</g>
<!-- 1&#45;&gt;2 -->
<g id="edge6" class="edge">
<title>1&#45;&gt;2</title>
<path fill="none" stroke="black" d="M379.96,-638.25C381.39,-759.07 392.46,-1449.13 459.28,-1510.25 464.2,-1514.74 469.36,-1514.75 474.28,-1510.25 539.36,-1450.65 550.77,-793.7 552.5,-648.53"/>
<polygon fill="black" stroke="black" points="556,-648.28 552.61,-638.24 549,-648.2 556,-648.28"/>
<text text-anchor="middle" x="466.78" y="-1517.05" font-family="Times,serif" font-size="14.00">A</text>
</g>
<!-- 1&#45;&gt;2 -->
<g id="edge7" class="edge">
<title>1&#45;&gt;2</title>
<path fill="none" stroke="black" d="M380.04,-638.23C381.93,-755.99 395.31,-1413.97 459.28,-1472.25 464.21,-1476.73 469.35,-1476.74 474.28,-1472.25 536.52,-1415.47 550.09,-790.26 552.38,-648.65"/>
<polygon fill="black" stroke="black" points="555.88,-648.28 552.54,-638.23 548.88,-648.17 555.88,-648.28"/>
<text text-anchor="middle" x="466.78" y="-1479.05" font-family="Times,serif" font-size="14.00">O</text>
</g>
<!-- 1&#45;&gt;2 -->
<g id="edge11" class="edge">
<title>1&#45;&gt;2</title>
<path fill="none" stroke="black" d="M380.13,-638.53C382.51,-754 398.21,-1378.85 459.28,-1434.25 464.22,-1438.72 469.34,-1438.73 474.28,-1434.25 533.69,-1380.28 549.39,-786.55 552.25,-648.71"/>
<polygon fill="black" stroke="black" points="555.75,-648.6 552.45,-638.53 548.75,-648.46 555.75,-648.6"/>
<text text-anchor="middle" x="466.78" y="-1441.05" font-family="Times,serif" font-size="14.00">s</text>
</g>
<!-- 1&#45;&gt;2 -->
<g id="edge12" class="edge">
<title>1&#45;&gt;2</title>
<path fill="none" stroke="black" d="M380.21,-638.4C383.09,-750.34 401.04,-1343.67 459.28,-1396.25 464.23,-1400.71 469.33,-1400.72 474.28,-1396.25 530.89,-1345.07 548.67,-782.37 552.11,-648.64"/>
<polygon fill="black" stroke="black" points="555.61,-648.48 552.36,-638.4 548.61,-648.31 555.61,-648.48"/>
<text text-anchor="middle" x="466.78" y="-1403.05" font-family="Times,serif" font-size="14.00">S</text>
</g>
<!-- 1&#45;&gt;2 -->
<g id="edge14" class="edge">
<title>1&#45;&gt;2</title>
<path fill="none" stroke="black" d="M380.31,-638.21C383.69,-746.42 403.85,-1308.47 459.28,-1358.25 464.24,-1362.7 469.32,-1362.7 474.28,-1358.25 528.1,-1309.85 547.92,-777.84 551.96,-648.47"/>
<polygon fill="black" stroke="black" points="555.46,-648.31 552.27,-638.21 548.47,-648.1 555.46,-648.31"/>
<text text-anchor="middle" x="466.78" y="-1365.05" font-family="Times,serif" font-size="14.00">c</text>
</g>
<!-- 1&#45;&gt;2 -->
<g id="edge17" class="edge">
<title>1&#45;&gt;2</title>
<path fill="none" stroke="black" d="M380.42,-638.3C384.35,-743.4 406.7,-1273.3 459.28,-1320.25 464.25,-1324.69 469.31,-1324.69 474.28,-1320.25 525.27,-1274.65 547.09,-774.03 551.78,-648.61"/>
<polygon fill="black" stroke="black" points="555.29,-648.42 552.16,-638.3 548.3,-648.16 555.29,-648.42"/>
<text text-anchor="middle" x="466.78" y="-1327.05" font-family="Times,serif" font-size="14.00">x</text>
</g>
<!-- 1&#45;&gt;2 -->
<g id="edge19" class="edge">
<title>1&#45;&gt;2</title>
<path fill="none" stroke="black" d="M379.46,-638.59C377.8,-753.99 373.49,-1371.79 474.28,-1282.25 522.47,-1239.43 546.24,-769.73 551.59,-648.61"/>
<polygon fill="black" stroke="black" points="555.1,-648.45 552.04,-638.31 548.11,-648.14 555.1,-648.45"/>
<text text-anchor="middle" x="466.78" y="-1293.05" font-family="Times,serif" font-size="14.00">H</text>
</g>
<!-- 1&#45;&gt;2 -->
<g id="edge26" class="edge">
<title>1&#45;&gt;2</title>
<path fill="none" stroke="black" d="M379.6,-638.24C378.79,-748.78 379.06,-1328.23 474.28,-1244.25 519.69,-1204.19 545.35,-764.96 551.38,-648.47"/>
<polygon fill="black" stroke="black" points="554.89,-648.39 551.91,-638.22 547.9,-648.03 554.89,-648.39"/>
<text text-anchor="middle" x="466.78" y="-1255.05" font-family="Times,serif" font-size="14.00">i</text>
</g>
<!-- 1&#45;&gt;2 -->
<g id="edge27" class="edge">
<title>1&#45;&gt;2</title>
<path fill="none" stroke="black" d="M379.74,-638.51C379.85,-745.59 384.8,-1284.54 474.28,-1206.25 516.89,-1168.96 544.36,-760.6 551.14,-648.54"/>
<polygon fill="black" stroke="black" points="554.64,-648.55 551.75,-638.36 547.66,-648.13 554.64,-648.55"/>
<text text-anchor="middle" x="466.78" y="-1216.05" font-family="Times,serif" font-size="14.00">q</text>
</g>
<!-- 1&#45;&gt;2 -->
<g id="edge28" class="edge">
<title>1&#45;&gt;2</title>
<path fill="none" stroke="black" d="M379.91,-638.31C380.96,-740.68 390.39,-1240.97 474.28,-1168.25 553.36,-1099.68 554.7,-751.08 553.34,-648.61"/>
<polygon fill="black" stroke="black" points="556.83,-648.36 553.18,-638.41 549.84,-648.47 556.83,-648.36"/>
<text text-anchor="middle" x="466.78" y="-1178.05" font-family="Times,serif" font-size="14.00">o</text>
</g>
<!-- 1&#45;&gt;2 -->
<g id="edge33" class="edge">
<title>1&#45;&gt;2</title>
<path fill="none" stroke="black" d="M380.1,-638.31C382.15,-736.31 396.02,-1197.38 474.28,-1130.25 547.85,-1067.13 553.13,-746.27 553,-648.54"/>
<polygon fill="black" stroke="black" points="556.5,-648.25 552.97,-638.26 549.5,-648.27 556.5,-648.25"/>
<text text-anchor="middle" x="466.78" y="-1140.05" font-family="Times,serif" font-size="14.00">g</text>
</g>
<!-- 1&#45;&gt;2 -->
<g id="edge34" class="edge">
<title>1&#45;&gt;2</title>
<path fill="none" stroke="black" d="M380.32,-638.47C383.46,-732.25 401.67,-1153.77 474.28,-1092.25 542.4,-1034.52 551.47,-740.87 552.62,-648.26"/>
<polygon fill="black" stroke="black" points="556.12,-648.27 552.73,-638.23 549.12,-648.2 556.12,-648.27"/>
<text text-anchor="middle" x="466.78" y="-1102.05" font-family="Times,serif" font-size="14.00">M</text>
</g>
<!-- 1&#45;&gt;2 -->
<g id="edge35" class="edge">
<title>1&#45;&gt;2</title>
<path fill="none" stroke="black" d="M380.58,-638.44C384.86,-727.41 407.26,-1110.23 474.28,-1054.25 536.89,-1001.94 549.66,-735.96 552.18,-648.3"/>
<polygon fill="black" stroke="black" points="555.68,-648.38 552.44,-638.29 548.68,-648.2 555.68,-648.38"/>
<text text-anchor="middle" x="466.78" y="-1063.05" font-family="Times,serif" font-size="14.00">P</text>
</g>
<!-- 1&#45;&gt;2 -->
<g id="edge36" class="edge">
<title>1&#45;&gt;2</title>
<path fill="none" stroke="black" d="M380.88,-638.2C386.34,-721.8 412.76,-1066.77 474.28,-1016.25 531.3,-969.42 547.62,-731.75 551.62,-648.83"/>
<polygon fill="black" stroke="black" points="555.13,-648.78 552.09,-638.63 548.14,-648.46 555.13,-648.78"/>
<text text-anchor="middle" x="466.78" y="-1025.05" font-family="Times,serif" font-size="14.00">K</text>
</g>
<!-- 1&#45;&gt;2 -->
<g id="edge41" class="edge">
<title>1&#45;&gt;2</title>
<path fill="none" stroke="black" d="M381.25,-638.27C388.04,-716.81 418.31,-1023.27 474.28,-978.25 525.9,-936.71 545.48,-725.83 550.99,-648.62"/>
<polygon fill="black" stroke="black" points="554.51,-648.45 551.7,-638.24 547.53,-647.97 554.51,-648.45"/>
<text text-anchor="middle" x="466.78" y="-986.05" font-family="Times,serif" font-size="14.00">T</text>
</g>
<!-- 1&#45;&gt;2 -->
<g id="edge44" class="edge">
<title>1&#45;&gt;2</title>
<path fill="none" stroke="black" d="M381.71,-638.27C389.93,-711.35 423.8,-979.84 474.28,-940.25 520.51,-903.98 543.1,-719.82 550.21,-648.5"/>
<polygon fill="black" stroke="black" points="553.71,-648.74 551.19,-638.45 546.74,-648.06 553.71,-648.74"/>
<text text-anchor="middle" x="466.78" y="-947.05" font-family="Times,serif" font-size="14.00">G</text>
</g>
<!-- 1&#45;&gt;2 -->
<g id="edge46" class="edge">
<title>1&#45;&gt;2</title>
<path fill="none" stroke="black" d="M379.5,-638.49C379,-710.96 383.41,-971.27 474.28,-902.25 515.2,-871.16 540.46,-713.19 549.26,-648.22"/>
<polygon fill="black" stroke="black" points="552.73,-648.64 550.58,-638.27 545.79,-647.72 552.73,-648.64"/>
<text text-anchor="middle" x="466.78" y="-913.05" font-family="Times,serif" font-size="14.00">k</text>
</g>
<!-- 1&#45;&gt;2 -->
<g id="edge47" class="edge">
<title>1&#45;&gt;2</title>
<path fill="none" stroke="black" d="M380.12,-638.63C381.99,-704.62 394.24,-922.57 474.28,-864.25 543.44,-813.84 552.99,-701.46 553.46,-648.67"/>
<polygon fill="black" stroke="black" points="556.96,-648.35 553.44,-638.35 549.96,-648.36 556.96,-648.35"/>
<text text-anchor="middle" x="466.78" y="-874.05" font-family="Times,serif" font-size="14.00">w</text>
</g>
<!-- 1&#45;&gt;2 -->
<g id="edge49" class="edge">
<title>1&#45;&gt;2</title>
<path fill="none" stroke="black" d="M380.94,-638.51C385.4,-697.15 404.78,-874.13 474.28,-826.25 533.07,-785.73 547.86,-694.88 551.56,-648.56"/>
<polygon fill="black" stroke="black" points="555.07,-648.54 552.25,-638.33 548.09,-648.07 555.07,-648.54"/>
<text text-anchor="middle" x="466.78" y="-836.05" font-family="Times,serif" font-size="14.00">D</text>
</g>
<!-- 1&#45;&gt;2 -->
<g id="edge50" class="edge">
<title>1&#45;&gt;2</title>
<path fill="none" stroke="black" d="M382.09,-638.22C389.38,-688.76 414.99,-825.98 474.28,-788.25 523.04,-757.21 542.02,-687.07 549,-647.95"/>
<polygon fill="black" stroke="black" points="552.46,-648.46 550.63,-638.02 545.56,-647.32 552.46,-648.46"/>
<text text-anchor="middle" x="466.78" y="-797.05" font-family="Times,serif" font-size="14.00">n</text>
</g>
<!-- 1&#45;&gt;2 -->
<g id="edge52" class="edge">
<title>1&#45;&gt;2</title>
<path fill="none" stroke="black" d="M383.75,-637.62C394.13,-679.06 424.71,-778.22 474.28,-750.25 513.06,-728.36 534.84,-678.76 545.17,-647.55"/>
<polygon fill="black" stroke="black" points="548.59,-648.32 548.24,-637.73 541.91,-646.23 548.59,-648.32"/>
<text text-anchor="middle" x="466.78" y="-758.05" font-family="Times,serif" font-size="14.00">R</text>
</g>
<!-- 1&#45;&gt;2 -->
<g id="edge61" class="edge">
<title>1&#45;&gt;2</title>
<path fill="none" stroke="black" d="M387.7,-635.94C399.74,-657.81 424.92,-696.52 459.28,-712.25 495.69,-728.9 526.19,-679.29 541.72,-646.57"/>
<polygon fill="black" stroke="black" points="545.1,-647.61 546.05,-637.05 538.72,-644.71 545.1,-647.61"/>
<text text-anchor="middle" x="466.78" y="-719.05" font-family="Times,serif" font-size="14.00">C</text>
</g>
<!-- 1&#45;&gt;2 -->
<g id="edge62" class="edge">
<title>1&#45;&gt;2</title>
<path fill="none" stroke="black" d="M390.95,-634.05C407.9,-653.2 441.62,-684.39 474.28,-674.25 496.4,-667.37 517.82,-651.85 532.67,-639.21"/>
<polygon fill="black" stroke="black" points="535.03,-641.79 540.22,-632.55 530.4,-636.55 535.03,-641.79"/>
<text text-anchor="middle" x="466.78" y="-679.05" font-family="Times,serif" font-size="14.00">J</text>
</g>
<!-- 1&#45;&gt;2 -->
<g id="edge63" class="edge">
<title>1&#45;&gt;2</title>
<path fill="none" stroke="black" d="M396.08,-625.71C414.84,-631.38 446.63,-639.03 474.28,-636.25 491.65,-634.49 510.86,-630.61 525.93,-627.11"/>
<polygon fill="black" stroke="black" points="527.18,-630.41 536.08,-624.67 525.54,-623.6 527.18,-630.41"/>
<text text-anchor="middle" x="466.78" y="-640.05" font-family="Times,serif" font-size="14.00">L</text>
</g>
<!-- 1&#45;&gt;2 -->
<g id="edge64" class="edge">
<title>1&#45;&gt;2</title>
<path fill="none" stroke="black" d="M396.85,-619.18C415.77,-618.12 447.2,-616.73 474.28,-617.25 491.29,-617.57 510.35,-618.29 525.44,-618.94"/>
<polygon fill="black" stroke="black" points="525.49,-622.45 535.63,-619.4 525.8,-615.46 525.49,-622.45"/>
<text text-anchor="middle" x="466.78" y="-621.05" font-family="Times,serif" font-size="14.00">I</text>
</g>
<!-- 1&#45;&gt;2 -->
<g id="edge65" class="edge">
<title>1&#45;&gt;2</title>
<path fill="none" stroke="black" d="M395.33,-613.01C413.92,-605.2 446.07,-594.37 474.28,-598.25 492.16,-600.7 511.72,-606.17 526.83,-611.05"/>
<polygon fill="black" stroke="black" points="525.92,-614.43 536.51,-614.28 528.14,-607.79 525.92,-614.43"/>
<text text-anchor="middle" x="466.78" y="-602.05" font-family="Times,serif" font-size="14.00">d</text>
</g>
<!-- 1&#45;&gt;2 -->
<g id="edge66" class="edge">
<title>1&#45;&gt;2</title>
<path fill="none" stroke="black" d="M392.74,-608.54C410.51,-593.94 443.71,-571.74 474.28,-579.25 494.31,-584.16 514.9,-595.18 529.97,-604.56"/>
<polygon fill="black" stroke="black" points="528.28,-607.64 538.58,-610.12 532.08,-601.76 528.28,-607.64"/>
<text text-anchor="middle" x="466.78" y="-583.05" font-family="Times,serif" font-size="14.00">Q</text>
</g>
<!-- 1&#45;&gt;2 -->
<g id="edge68" class="edge">
<title>1&#45;&gt;2</title>
<path fill="none" stroke="black" d="M391.44,-607.17C405.71,-592.25 431.44,-568.7 459.28,-559.25 489.09,-549.13 518.71,-576.41 536.39,-597.7"/>
<polygon fill="black" stroke="black" points="533.81,-600.09 542.76,-605.76 539.3,-595.75 533.81,-600.09"/>
<text text-anchor="middle" x="466.78" y="-563.05" font-family="Times,serif" font-size="14.00">Y</text>
</g>
<!-- 1&#45;&gt;2 -->
<g id="edge70" class="edge">
<title>1&#45;&gt;2</title>
<path fill="none" stroke="black" d="M388.8,-605.21C401.62,-585.51 427.14,-551.85 459.28,-538.25 493.55,-523.74 524.05,-565.93 540.33,-595.05"/>
<polygon fill="black" stroke="black" points="537.29,-596.8 545.1,-603.96 543.46,-593.49 537.29,-596.8"/>
<text text-anchor="middle" x="466.78" y="-542.05" font-family="Times,serif" font-size="14.00">B</text>
</g>
<!-- 1&#45;&gt;2 -->
<g id="edge71" class="edge">
<title>1&#45;&gt;2</title>
<path fill="none" stroke="black" d="M385.5,-603.5C398.24,-569.2 431.22,-495.92 474.28,-517.25 506.65,-533.28 529.31,-569.76 541.7,-594.7"/>
<polygon fill="black" stroke="black" points="538.64,-596.42 546.08,-603.95 544.96,-593.42 538.64,-596.42"/>
<text text-anchor="middle" x="466.78" y="-521.05" font-family="Times,serif" font-size="14.00">y</text>
</g>
<!-- 1&#45;&gt;2 -->
<g id="edge72" class="edge">
<title>1&#45;&gt;2</title>
<path fill="none" stroke="black" d="M384.04,-602.95C394.84,-562.78 425.95,-468.53 474.28,-495.25 511.79,-515.98 533.8,-562.99 544.54,-593.08"/>
<polygon fill="black" stroke="black" points="541.36,-594.6 547.88,-602.95 547.99,-592.36 541.36,-594.6"/>
<text text-anchor="middle" x="466.78" y="-499.05" font-family="Times,serif" font-size="14.00">N</text>
</g>
<!-- 1&#45;&gt;2 -->
<g id="edge75" class="edge">
<title>1&#45;&gt;2</title>
<path fill="none" stroke="black" d="M382.9,-602.48C391.79,-556.56 420.2,-439.72 474.28,-472.25 517.64,-498.33 538.32,-557.33 547.12,-592.45"/>
<polygon fill="black" stroke="black" points="543.79,-593.58 549.48,-602.52 550.61,-591.98 543.79,-593.58"/>
<text text-anchor="middle" x="466.78" y="-476.05" font-family="Times,serif" font-size="14.00">p</text>
</g>
<!-- 1&#45;&gt;2 -->
<g id="edge76" class="edge">
<title>1&#45;&gt;2</title>
<path fill="none" stroke="black" d="M381.98,-602.31C389.02,-551.16 414.17,-410.7 474.28,-449.25 523.77,-480.99 542.47,-552.63 549.22,-592.37"/>
<polygon fill="black" stroke="black" points="545.79,-593.1 550.78,-602.44 552.7,-592.02 545.79,-593.1"/>
<text text-anchor="middle" x="466.78" y="-453.05" font-family="Times,serif" font-size="14.00">f</text>
</g>
<!-- 1&#45;&gt;2 -->
<g id="edge77" class="edge">
<title>1&#45;&gt;2</title>
<path fill="none" stroke="black" d="M381.22,-602.19C386.45,-545.95 407.72,-380.29 474.28,-425.25 530.16,-462.99 546.27,-547.83 550.91,-592.12"/>
<polygon fill="black" stroke="black" points="547.43,-592.56 551.83,-602.2 554.4,-591.92 547.43,-592.56"/>
<text text-anchor="middle" x="466.78" y="-429.05" font-family="Times,serif" font-size="14.00">m</text>
</g>
<!-- 1&#45;&gt;2 -->
<g id="edge81" class="edge">
<title>1&#45;&gt;2</title>
<path fill="none" stroke="black" d="M380.6,-602.02C384.07,-540.7 400.89,-348.51 474.28,-400.25 536.83,-444.34 549.82,-542.99 552.32,-591.79"/>
<polygon fill="black" stroke="black" points="548.83,-592.11 552.73,-601.96 555.83,-591.83 548.83,-592.11"/>
<text text-anchor="middle" x="466.78" y="-404.05" font-family="Times,serif" font-size="14.00">X</text>
</g>
<!-- 1&#45;&gt;2 -->
<g id="edge82" class="edge">
<title>1&#45;&gt;2</title>
<path fill="none" stroke="black" d="M380.07,-602.16C381.79,-536.18 393.56,-315.27 474.28,-374.25 544.04,-425.21 553.25,-538.86 553.55,-591.93"/>
<polygon fill="black" stroke="black" points="550.05,-591.98 553.5,-601.99 557.05,-592.01 550.05,-591.98"/>
<text text-anchor="middle" x="466.78" y="-378.05" font-family="Times,serif" font-size="14.00">Z</text>
</g>
<!-- 1&#45;&gt;2 -->
<g id="edge83" class="edge">
<title>1&#45;&gt;2</title>
<path fill="none" stroke="black" d="M379.66,-602.25C379.81,-531.99 386.44,-283.24 474.28,-349.25 513.7,-378.87 539.67,-529.54 548.96,-592.52"/>
<polygon fill="black" stroke="black" points="545.51,-593.13 550.41,-602.53 552.44,-592.13 545.51,-593.13"/>
<text text-anchor="middle" x="466.78" y="-353.05" font-family="Times,serif" font-size="14.00">j</text>
</g>
<!-- 1&#45;&gt;2 -->
<g id="edge84" class="edge">
<title>1&#45;&gt;2</title>
<path fill="none" stroke="black" d="M379.3,-602.04C377.93,-527.13 379.1,-249.96 474.28,-323.25 517.3,-356.37 541.54,-524.68 549.67,-592.18"/>
<polygon fill="black" stroke="black" points="546.19,-592.59 550.83,-602.11 553.14,-591.77 546.19,-592.59"/>
<text text-anchor="middle" x="466.78" y="-327.05" font-family="Times,serif" font-size="14.00">b</text>
</g>
<!-- 1&#45;&gt;2 -->
<g id="edge85" class="edge">
<title>1&#45;&gt;2</title>
<path fill="none" stroke="black" d="M381.66,-602.3C389.74,-528.89 423.35,-257.21 474.28,-297.25 520.99,-333.97 543.35,-520.61 550.3,-592.22"/>
<polygon fill="black" stroke="black" points="546.83,-592.68 551.26,-602.31 553.8,-592.02 546.83,-592.68"/>
<text text-anchor="middle" x="466.78" y="-301.05" font-family="Times,serif" font-size="14.00">z</text>
</g>
<!-- 1&#45;&gt;2 -->
<g id="edge86" class="edge">
<title>1&#45;&gt;2</title>
<path fill="none" stroke="black" d="M381.38,-602.32C388.58,-525.62 420.02,-230.92 474.28,-274.25 524.17,-314.08 544.73,-516.29 550.75,-591.78"/>
<polygon fill="black" stroke="black" points="547.28,-592.26 551.54,-601.96 554.26,-591.72 547.28,-592.26"/>
<text text-anchor="middle" x="466.78" y="-278.05" font-family="Times,serif" font-size="14.00">e</text>
</g>
<!-- 1&#45;&gt;2 -->
<g id="edge90" class="edge">
<title>1&#45;&gt;2</title>
<path fill="none" stroke="black" d="M381.14,-602.2C387.54,-522.11 416.71,-204.64 474.28,-251.25 527.51,-294.35 546.16,-513.34 551.2,-592.04"/>
<polygon fill="black" stroke="black" points="547.72,-592.41 551.83,-602.18 554.71,-591.98 547.72,-592.41"/>
<text text-anchor="middle" x="466.78" y="-255.05" font-family="Times,serif" font-size="14.00">r</text>
</g>
<!-- 1&#45;&gt;2 -->
<g id="edge91" class="edge">
<title>1&#45;&gt;2</title>
<path fill="none" stroke="black" d="M380.92,-602.2C386.53,-518.96 413.37,-178.32 474.28,-228.25 530.79,-274.56 547.44,-509.85 551.58,-591.94"/>
<polygon fill="black" stroke="black" points="548.09,-592.22 552.06,-602.04 555.08,-591.88 548.09,-592.22"/>
<text text-anchor="middle" x="466.78" y="-232.05" font-family="Times,serif" font-size="14.00">W</text>
</g>
<!-- 1&#45;&gt;2 -->
<g id="edge95" class="edge">
<title>1&#45;&gt;2</title>
<path fill="none" stroke="black" d="M380.72,-602.29C385.56,-516.19 409.98,-151.97 474.28,-205.25 534.11,-254.82 548.68,-506.74 551.92,-592"/>
<polygon fill="black" stroke="black" points="548.42,-592.12 552.28,-601.99 555.42,-591.88 548.42,-592.12"/>
<text text-anchor="middle" x="466.78" y="-209.05" font-family="Times,serif" font-size="14.00">a</text>
</g>
<!-- 1&#45;&gt;2 -->
<g id="edge96" class="edge">
<title>1&#45;&gt;2</title>
<path fill="none" stroke="black" d="M380.54,-602.14C384.65,-512.69 406.5,-124.51 474.28,-181.25 537.61,-234.26 549.9,-503.82 552.24,-592.17"/>
<polygon fill="black" stroke="black" points="548.74,-592.33 552.48,-602.25 555.74,-592.16 548.74,-592.33"/>
<text text-anchor="middle" x="466.78" y="-185.05" font-family="Times,serif" font-size="14.00">F</text>
</g>
<!-- 1&#45;&gt;2 -->
<g id="edge98" class="edge">
<title>1&#45;&gt;2</title>
<path fill="none" stroke="black" d="M380.38,-602.07C383.77,-509.49 402.99,-97.03 474.28,-157.25 541.01,-213.62 551.03,-500.03 552.52,-591.87"/>
<polygon fill="black" stroke="black" points="549.02,-592.12 552.66,-602.07 556.02,-592.02 549.02,-592.12"/>
<text text-anchor="middle" x="466.78" y="-161.05" font-family="Times,serif" font-size="14.00">v</text>
</g>
<!-- 1&#45;&gt;2 -->
<g id="edge99" class="edge">
<title>1&#45;&gt;2</title>
<path fill="none" stroke="black" d="M380.23,-602.07C382.93,-506.57 399.45,-69.51 474.28,-133.25 544.52,-193.07 552.13,-497.19 552.78,-591.99"/>
<polygon fill="black" stroke="black" points="549.28,-592.25 552.83,-602.23 556.28,-592.22 549.28,-592.25"/>
<text text-anchor="middle" x="466.78" y="-137.05" font-family="Times,serif" font-size="14.00">V</text>
</g>
<!-- 1&#45;&gt;2 -->
<g id="edge102" class="edge">
<title>1&#45;&gt;2</title>
<path fill="none" stroke="black" d="M380.09,-602.11C382.09,-503.72 395.74,-40.83 474.28,-108.25 548.19,-171.69 553.22,-494.39 553.02,-592.14"/>
<polygon fill="black" stroke="black" points="549.52,-592.15 552.98,-602.16 556.52,-592.18 549.52,-592.15"/>
<text text-anchor="middle" x="466.78" y="-112.05" font-family="Times,serif" font-size="14.00">l</text>
</g>
<!-- 1&#45;&gt;2 -->
<g id="edge106" class="edge">
<title>1&#45;&gt;2</title>
<path fill="none" stroke="black" d="M379.96,-602.22C381.29,-501.18 392.01,-12.13 474.28,-83.25 551.82,-150.28 554.26,-491.25 553.24,-592.11"/>
<polygon fill="black" stroke="black" points="549.74,-592.11 553.12,-602.15 556.74,-592.2 549.74,-592.11"/>
<text text-anchor="middle" x="466.78" y="-87.05" font-family="Times,serif" font-size="14.00">E</text>
</g>
<!-- 1&#45;&gt;2 -->
<g id="edge107" class="edge">
<title>1&#45;&gt;2</title>
<path fill="none" stroke="black" d="M379.85,-602.06C380.54,-497.83 388.34,16.52 474.28,-58.25 515.15,-93.8 543.73,-483.11 550.98,-592.06"/>
<polygon fill="black" stroke="black" points="547.5,-592.52 551.65,-602.27 554.48,-592.06 547.5,-592.52"/>
<text text-anchor="middle" x="466.78" y="-62.05" font-family="Times,serif" font-size="14.00">u</text>
</g>
<!-- 1&#45;&gt;2 -->
<g id="edge108" class="edge">
<title>1&#45;&gt;2</title>
<path fill="none" stroke="black" d="M379.74,-601.95C379.82,-494.69 384.66,45.19 474.28,-33.25 516.96,-70.6 544.38,-479.65 551.14,-591.9"/>
<polygon fill="black" stroke="black" points="547.66,-592.32 551.75,-602.1 554.65,-591.91 547.66,-592.32"/>
<text text-anchor="middle" x="466.78" y="-37.05" font-family="Times,serif" font-size="14.00">U</text>
</g>
<!-- 1&#45;&gt;2 -->
<g id="edge110" class="edge">
<title>1&#45;&gt;2</title>
<path fill="none" stroke="black" d="M379.64,-602.24C379.12,-492.98 380.85,73.96 474.28,-8.25 518.83,-47.45 545.07,-477.36 551.32,-592.19"/>
<polygon fill="black" stroke="black" points="547.83,-592.5 551.86,-602.29 554.82,-592.12 547.83,-592.5"/>
<text text-anchor="middle" x="466.78" y="-12.05" font-family="Times,serif" font-size="14.00">h</text>
</g>
<!-- 2&#45;&gt;3 -->
<g id="edge20" class="edge">
<title>2&#45;&gt;3</title>
<path fill="none" stroke="black" d="M571.91,-620.25C601.62,-620.25 663.69,-620.25 707.47,-620.25"/>
<polygon fill="black" stroke="black" points="707.62,-623.75 717.62,-620.25 707.62,-616.75 707.62,-623.75"/>
<text text-anchor="middle" x="633.78" y="-624.05" font-family="Times,serif" font-size="14.00">ε</text>
</g>
<!-- 4&#45;&gt;5 -->
<g id="edge3" class="edge">
<title>4&#45;&gt;5</title>
<path fill="none" stroke="black" d="M961.29,-1814.48C965.49,-1960.09 995.09,-2929.91 1039.28,-2971.25 1123.84,-3050.35 1165.35,-2078.1 1174.03,-1845.57"/>
<polygon fill="black" stroke="black" points="1177.54,-1845.5 1174.41,-1835.38 1170.54,-1845.24 1177.54,-1845.5"/>
<text text-anchor="middle" x="1046.78" y="-2979.05" font-family="Times,serif" font-size="14.00">q</text>
</g>
<!-- 4&#45;&gt;5 -->
<g id="edge4" class="edge">
<title>4&#45;&gt;5</title>
<path fill="none" stroke="black" d="M960.58,-1814.52C959.23,-1954.52 953.93,-2853.59 1039.28,-2933.25 1121.01,-3009.53 1164.49,-2074 1173.85,-1845.8"/>
<polygon fill="black" stroke="black" points="1177.36,-1845.6 1174.26,-1835.47 1170.36,-1845.32 1177.36,-1845.6"/>
<text text-anchor="middle" x="1046.78" y="-2941.05" font-family="Times,serif" font-size="14.00">O</text>
</g>
<!-- 4&#45;&gt;5 -->
<g id="edge8" class="edge">
<title>4&#45;&gt;5</title>
<path fill="none" stroke="black" d="M960.62,-1814.34C959.65,-1951.08 956.77,-2818.42 1039.28,-2895.25 1118.23,-2968.76 1163.66,-2068.66 1173.66,-1845.59"/>
<polygon fill="black" stroke="black" points="1177.17,-1845.64 1174.11,-1835.49 1170.17,-1845.33 1177.17,-1845.64"/>
<text text-anchor="middle" x="1046.78" y="-2903.05" font-family="Times,serif" font-size="14.00">L</text>
</g>
<!-- 4&#45;&gt;5 -->
<g id="edge9" class="edge">
<title>4&#45;&gt;5</title>
<path fill="none" stroke="black" d="M960.67,-1814.57C960.08,-1949.29 959.68,-2783.32 1039.28,-2857.25 1115.43,-2927.97 1162.77,-2063.89 1173.46,-1845.64"/>
<polygon fill="black" stroke="black" points="1176.97,-1845.6 1173.96,-1835.44 1169.97,-1845.26 1176.97,-1845.6"/>
<text text-anchor="middle" x="1046.78" y="-2864.05" font-family="Times,serif" font-size="14.00">Y</text>
</g>
<!-- 4&#45;&gt;5 -->
<g id="edge10" class="edge">
<title>4&#45;&gt;5</title>
<path fill="none" stroke="black" d="M960.73,-1814.33C960.53,-1945.53 962.5,-2748.13 1039.28,-2819.25 1112.64,-2887.19 1161.85,-2058.77 1173.25,-1845.58"/>
<polygon fill="black" stroke="black" points="1176.76,-1845.49 1173.79,-1835.31 1169.77,-1845.11 1176.76,-1845.49"/>
<text text-anchor="middle" x="1046.78" y="-2826.05" font-family="Times,serif" font-size="14.00">j</text>
</g>
<!-- 4&#45;&gt;5 -->
<g id="edge13" class="edge">
<title>4&#45;&gt;5</title>
<path fill="none" stroke="black" d="M960.78,-1814.48C961,-1943.29 965.39,-2713.01 1039.28,-2781.25 1109.86,-2846.43 1160.91,-2053.39 1173.02,-1845.45"/>
<polygon fill="black" stroke="black" points="1176.52,-1845.61 1173.6,-1835.43 1169.53,-1845.21 1176.52,-1845.61"/>
<text text-anchor="middle" x="1046.78" y="-2788.05" font-family="Times,serif" font-size="14.00">b</text>
</g>
<!-- 4&#45;&gt;5 -->
<g id="edge15" class="edge">
<title>4&#45;&gt;5</title>
<path fill="none" stroke="black" d="M960.84,-1814.58C961.49,-1940.78 968.27,-2677.88 1039.28,-2743.25 1175.54,-2868.68 1177.99,-2057.1 1176.35,-1845.69"/>
<polygon fill="black" stroke="black" points="1179.85,-1845.47 1176.27,-1835.5 1172.85,-1845.53 1179.85,-1845.47"/>
<text text-anchor="middle" x="1046.78" y="-2754.05" font-family="Times,serif" font-size="14.00">u</text>
</g>
<!-- 4&#45;&gt;5 -->
<g id="edge16" class="edge">
<title>4&#45;&gt;5</title>
<path fill="none" stroke="black" d="M960.91,-1814.23C961.97,-1936.51 971.07,-2642.67 1039.28,-2705.25 1169.96,-2825.13 1176.62,-2051.66 1176.1,-1845.7"/>
<polygon fill="black" stroke="black" points="1179.6,-1845.47 1176.07,-1835.48 1172.6,-1845.49 1179.6,-1845.47"/>
<text text-anchor="middle" x="1046.78" y="-2715.05" font-family="Times,serif" font-size="14.00">e</text>
</g>
<!-- 4&#45;&gt;5 -->
<g id="edge18" class="edge">
<title>4&#45;&gt;5</title>
<path fill="none" stroke="black" d="M960.98,-1814.24C962.49,-1933.56 973.92,-2607.52 1039.28,-2667.25 1164.43,-2781.62 1175.2,-2045.77 1175.83,-1845.57"/>
<polygon fill="black" stroke="black" points="1179.33,-1845.36 1175.85,-1835.35 1172.33,-1845.34 1179.33,-1845.36"/>
<text text-anchor="middle" x="1046.78" y="-2677.05" font-family="Times,serif" font-size="14.00">6</text>
</g>
<!-- 4&#45;&gt;5 -->
<g id="edge21" class="edge">
<title>4&#45;&gt;5</title>
<path fill="none" stroke="black" d="M961.06,-1814.2C963.04,-1930.35 976.77,-2572.35 1039.28,-2629.25 1158.87,-2738.09 1173.71,-2040.22 1175.53,-1845.63"/>
<polygon fill="black" stroke="black" points="1179.03,-1845.44 1175.62,-1835.41 1172.03,-1845.38 1179.03,-1845.44"/>
<text text-anchor="middle" x="1046.78" y="-2639.05" font-family="Times,serif" font-size="14.00">S</text>
</g>
<!-- 4&#45;&gt;5 -->
<g id="edge22" class="edge">
<title>4&#45;&gt;5</title>
<path fill="none" stroke="black" d="M961.15,-1814.47C963.63,-1928.19 979.67,-2537.23 1039.28,-2591.25 1153.35,-2694.61 1172.16,-2034.15 1175.2,-1845.53"/>
<polygon fill="black" stroke="black" points="1178.71,-1845.39 1175.36,-1835.34 1171.71,-1845.29 1178.71,-1845.39"/>
<text text-anchor="middle" x="1046.78" y="-2600.05" font-family="Times,serif" font-size="14.00">1</text>
</g>
<!-- 4&#45;&gt;5 -->
<g id="edge24" class="edge">
<title>4&#45;&gt;5</title>
<path fill="none" stroke="black" d="M961.24,-1814.31C964.21,-1924.4 982.49,-2502.04 1039.28,-2553.25 1147.82,-2651.11 1170.54,-2028.26 1174.85,-1845.56"/>
<polygon fill="black" stroke="black" points="1178.35,-1845.5 1175.08,-1835.43 1171.35,-1845.34 1178.35,-1845.5"/>
<text text-anchor="middle" x="1046.78" y="-2566.05" font-family="Times,serif" font-size="14.00">o</text>
</g>
<!-- 4&#45;&gt;5 -->
<g id="edge25" class="edge">
<title>4&#45;&gt;5</title>
<path fill="none" stroke="black" d="M961.34,-1814.44C964.86,-1921.54 985.35,-2466.88 1039.28,-2515.25 1142.34,-2607.67 1168.85,-2021.79 1174.46,-1845.4"/>
<polygon fill="black" stroke="black" points="1177.96,-1845.46 1174.77,-1835.36 1170.96,-1845.24 1177.96,-1845.46"/>
<text text-anchor="middle" x="1046.78" y="-2527.05" font-family="Times,serif" font-size="14.00">a</text>
</g>
<!-- 4&#45;&gt;5 -->
<g id="edge29" class="edge">
<title>4&#45;&gt;5</title>
<path fill="none" stroke="black" d="M961.46,-1814.48C965.54,-1918.3 988.19,-2431.71 1039.28,-2477.25 1136.81,-2564.18 1167.03,-2015.91 1174.01,-1845.58"/>
<polygon fill="black" stroke="black" points="1177.52,-1845.52 1174.42,-1835.39 1170.52,-1845.24 1177.52,-1845.52"/>
<text text-anchor="middle" x="1046.78" y="-2489.05" font-family="Times,serif" font-size="14.00">Q</text>
</g>
<!-- 4&#45;&gt;5 -->
<g id="edge30" class="edge">
<title>4&#45;&gt;5</title>
<path fill="none" stroke="black" d="M961.59,-1814.44C966.24,-1914.67 991.02,-2396.52 1039.28,-2439.25 1131.3,-2520.72 1165.1,-2009.89 1173.51,-1845.79"/>
<polygon fill="black" stroke="black" points="1177.02,-1845.66 1174.03,-1835.49 1170.03,-1845.31 1177.02,-1845.66"/>
<text text-anchor="middle" x="1046.78" y="-2450.05" font-family="Times,serif" font-size="14.00">X</text>
</g>
<!-- 4&#45;&gt;5 -->
<g id="edge31" class="edge">
<title>4&#45;&gt;5</title>
<path fill="none" stroke="black" d="M961.73,-1814.31C966.97,-1910.66 993.83,-2361.31 1039.28,-2401.25 1125.86,-2477.32 1163.09,-2003.07 1172.96,-1845.72"/>
<polygon fill="black" stroke="black" points="1176.48,-1845.58 1173.6,-1835.38 1169.49,-1845.15 1176.48,-1845.58"/>
<text text-anchor="middle" x="1046.78" y="-2412.05" font-family="Times,serif" font-size="14.00">w</text>
</g>
<!-- 4&#45;&gt;5 -->
<g id="edge32" class="edge">
<title>4&#45;&gt;5</title>
<path fill="none" stroke="black" d="M961.9,-1814.38C967.79,-1907.2 996.66,-2326.12 1039.28,-2363.25 1120.45,-2433.95 1160.95,-1995.98 1172.34,-1845.6"/>
<polygon fill="black" stroke="black" points="1175.86,-1845.52 1173.11,-1835.29 1168.88,-1845 1175.86,-1845.52"/>
<text text-anchor="middle" x="1046.78" y="-2373.05" font-family="Times,serif" font-size="14.00">W</text>
</g>
<!-- 4&#45;&gt;5 -->
<g id="edge37" class="edge">
<title>4&#45;&gt;5</title>
<path fill="none" stroke="black" d="M960.48,-1814.35C959.48,-1899.29 960.1,-2256.95 1039.28,-2325.25 1115.04,-2390.59 1158.63,-1988.97 1171.63,-1845.65"/>
<polygon fill="black" stroke="black" points="1175.14,-1845.66 1172.54,-1835.39 1168.17,-1845.04 1175.14,-1845.66"/>
<text text-anchor="middle" x="1046.78" y="-2335.05" font-family="Times,serif" font-size="14.00">J</text>
</g>
<!-- 4&#45;&gt;5 -->
<g id="edge38" class="edge">
<title>4&#45;&gt;5</title>
<path fill="none" stroke="black" d="M960.7,-1814.4C960.78,-1895.64 965.71,-2224.51 1039.28,-2287.25 1109.73,-2347.33 1156.22,-1980.97 1170.84,-1845.31"/>
<polygon fill="black" stroke="black" points="1174.34,-1845.5 1171.92,-1835.18 1167.38,-1844.76 1174.34,-1845.5"/>
<text text-anchor="middle" x="1046.78" y="-2296.05" font-family="Times,serif" font-size="14.00">i</text>
</g>
<!-- 4&#45;&gt;5 -->
<g id="edge39" class="edge">
<title>4&#45;&gt;5</title>
<path fill="none" stroke="black" d="M960.96,-1814.29C962.18,-1891.41 971.26,-2192 1039.28,-2249.25 1104.44,-2304.09 1153.61,-1972.79 1169.93,-1844.99"/>
<polygon fill="black" stroke="black" points="1173.4,-1845.42 1171.18,-1835.06 1166.46,-1844.54 1173.4,-1845.42"/>
<text text-anchor="middle" x="1046.78" y="-2259.05" font-family="Times,serif" font-size="14.00">P</text>
</g>
<!-- 4&#45;&gt;5 -->
<g id="edge40" class="edge">
<title>4&#45;&gt;5</title>
<path fill="none" stroke="black" d="M961.28,-1814.5C963.71,-1887.83 976.89,-2159.55 1039.28,-2211.25 1160.54,-2311.72 1174.89,-1976.23 1175.99,-1845.86"/>
<polygon fill="black" stroke="black" points="1179.49,-1845.75 1176.05,-1835.73 1172.49,-1845.71 1179.49,-1845.75"/>
<text text-anchor="middle" x="1046.78" y="-2221.05" font-family="Times,serif" font-size="14.00">3</text>
</g>
<!-- 4&#45;&gt;5 -->
<g id="edge42" class="edge">
<title>4&#45;&gt;5</title>
<path fill="none" stroke="black" d="M961.64,-1814.23C965.33,-1882.88 982.35,-2126.95 1039.28,-2173.25 1150,-2263.29 1170.92,-1967.3 1174.87,-1845.85"/>
<polygon fill="black" stroke="black" points="1178.37,-1845.79 1175.17,-1835.69 1171.37,-1845.58 1178.37,-1845.79"/>
<text text-anchor="middle" x="1046.78" y="-2183.05" font-family="Times,serif" font-size="14.00">p</text>
</g>
<!-- 4&#45;&gt;5 -->
<g id="edge43" class="edge">
<title>4&#45;&gt;5</title>
<path fill="none" stroke="black" d="M962.08,-1814.17C967.14,-1878.25 987.85,-2094.36 1039.28,-2135.25 1139.7,-2215.07 1166.64,-1957.34 1173.53,-1845.47"/>
<polygon fill="black" stroke="black" points="1177.03,-1845.62 1174.12,-1835.43 1170.04,-1845.21 1177.03,-1845.62"/>
<text text-anchor="middle" x="1046.78" y="-2148.05" font-family="Times,serif" font-size="14.00">N</text>
</g>
<!-- 4&#45;&gt;5 -->
<g id="edge45" class="edge">
<title>4&#45;&gt;5</title>
<path fill="none" stroke="black" d="M962.64,-1814.2C969.19,-1873.57 993.34,-2061.75 1039.28,-2097.25 1129.49,-2166.95 1161.89,-1947.17 1171.88,-1845.25"/>
<polygon fill="black" stroke="black" points="1175.37,-1845.46 1172.83,-1835.18 1168.41,-1844.81 1175.37,-1845.46"/>
<text text-anchor="middle" x="1046.78" y="-2109.05" font-family="Times,serif" font-size="14.00">t</text>
</g>
<!-- 4&#45;&gt;5 -->
<g id="edge48" class="edge">
<title>4&#45;&gt;5</title>
<path fill="none" stroke="black" d="M963.35,-1814.21C971.52,-1868.51 998.78,-2029.07 1039.28,-2059.25 1119.41,-2118.96 1156.53,-1936.6 1169.77,-1845.17"/>
<polygon fill="black" stroke="black" points="1173.27,-1845.42 1171.2,-1835.03 1166.34,-1844.44 1173.27,-1845.42"/>
<text text-anchor="middle" x="1046.78" y="-2070.05" font-family="Times,serif" font-size="14.00">D</text>
</g>
<!-- 4&#45;&gt;5 -->
<g id="edge51" class="edge">
<title>4&#45;&gt;5</title>
<path fill="none" stroke="black" d="M960.66,-1814.27C961.48,-1858.51 970.47,-1972.37 1039.28,-2021.25 1109.74,-2071.29 1150.6,-1924.53 1167.13,-1844.49"/>
<polygon fill="black" stroke="black" points="1170.58,-1845.1 1169.12,-1834.6 1163.72,-1843.71 1170.58,-1845.1"/>
<text text-anchor="middle" x="1046.78" y="-2031.05" font-family="Times,serif" font-size="14.00">d</text>
</g>
<!-- 4&#45;&gt;5 -->
<g id="edge53" class="edge">
<title>4&#45;&gt;5</title>
<path fill="none" stroke="black" d="M962.04,-1814.16C965.86,-1852.97 980.93,-1944.46 1039.28,-1983.25 1100.37,-2023.86 1143.74,-1911.5 1163.6,-1843.65"/>
<polygon fill="black" stroke="black" points="1166.98,-1844.57 1166.36,-1833.99 1160.25,-1842.65 1166.98,-1844.57"/>
<text text-anchor="middle" x="1046.78" y="-1992.05" font-family="Times,serif" font-size="14.00">v</text>
</g>
<!-- 4&#45;&gt;5 -->
<g id="edge54" class="edge">
<title>4&#45;&gt;5</title>
<path fill="none" stroke="black" d="M963.98,-1813.83C970.98,-1846.57 991.09,-1916.16 1039.28,-1945.25 1091.41,-1976.71 1135.6,-1897 1158.65,-1842.42"/>
<polygon fill="black" stroke="black" points="1162.01,-1843.47 1162.57,-1832.89 1155.53,-1840.8 1162.01,-1843.47"/>
<text text-anchor="middle" x="1046.78" y="-1954.05" font-family="Times,serif" font-size="14.00">T</text>
</g>
<!-- 4&#45;&gt;5 -->
<g id="edge55" class="edge">
<title>4&#45;&gt;5</title>
<path fill="none" stroke="black" d="M965.75,-1813.27C977.12,-1848.64 1007.65,-1925.34 1054.28,-1907.25 1091.45,-1892.82 1124.2,-1861.13 1146.31,-1835.29"/>
<polygon fill="black" stroke="black" points="1149.1,-1837.41 1152.82,-1827.49 1143.73,-1832.92 1149.1,-1837.41"/>
<text text-anchor="middle" x="1046.78" y="-1913.05" font-family="Times,serif" font-size="14.00">z</text>
</g>
<!-- 4&#45;&gt;5 -->
<g id="edge56" class="edge">
<title>4&#45;&gt;5</title>
<path fill="none" stroke="black" d="M969.41,-1811.54C984.38,-1835.84 1017.17,-1879.54 1054.28,-1869.25 1084.56,-1860.85 1114.86,-1842.67 1137.63,-1826.55"/>
<polygon fill="black" stroke="black" points="1139.93,-1829.2 1145.97,-1820.5 1135.82,-1823.54 1139.93,-1829.2"/>
<text text-anchor="middle" x="1046.78" y="-1874.05" font-family="Times,serif" font-size="14.00">f</text>
</g>
<!-- 4&#45;&gt;5 -->
<g id="edge57" class="edge">
<title>4&#45;&gt;5</title>
<path fill="none" stroke="black" d="M975.48,-1805.06C990.79,-1813.69 1015.78,-1826.24 1039.28,-1831.25 1070.61,-1837.91 1105.59,-1828.61 1132.3,-1817.92"/>
<polygon fill="black" stroke="black" points="1133.88,-1821.05 1141.74,-1813.95 1131.17,-1814.6 1133.88,-1821.05"/>
<text text-anchor="middle" x="1046.78" y="-1837.05" font-family="Times,serif" font-size="14.00">l</text>
</g>
<!-- 4&#45;&gt;5 -->
<g id="edge58" class="edge">
<title>4&#45;&gt;5</title>
<path fill="none" stroke="black" d="M978.01,-1796.25C1010.04,-1796.25 1079.79,-1796.25 1127.28,-1796.25"/>
<polygon fill="black" stroke="black" points="1127.35,-1799.75 1137.35,-1796.25 1127.35,-1792.75 1127.35,-1799.75"/>
<text text-anchor="middle" x="1046.78" y="-1800.05" font-family="Times,serif" font-size="14.00">K</text>
</g>
<!-- 4&#45;&gt;5 -->
<g id="edge59" class="edge">
<title>4&#45;&gt;5</title>
<path fill="none" stroke="black" d="M977.11,-1791.09C992.85,-1786.41 1017.42,-1779.85 1039.28,-1777.25 1069.17,-1773.68 1102.64,-1778.21 1128.96,-1783.73"/>
<polygon fill="black" stroke="black" points="1128.52,-1787.22 1139.04,-1785.97 1130.04,-1780.39 1128.52,-1787.22"/>
<text text-anchor="middle" x="1046.78" y="-1781.05" font-family="Times,serif" font-size="14.00">r</text>
</g>
<!-- 4&#45;&gt;5 -->
<g id="edge67" class="edge">
<title>4&#45;&gt;5</title>
<path fill="none" stroke="black" d="M975.01,-1786.37C990.15,-1776.51 1015.18,-1762.03 1039.28,-1756.25 1071.28,-1748.56 1106.96,-1759.72 1133.81,-1772.19"/>
<polygon fill="black" stroke="black" points="1132.4,-1775.39 1142.92,-1776.62 1135.46,-1769.1 1132.4,-1775.39"/>
<text text-anchor="middle" x="1046.78" y="-1760.05" font-family="Times,serif" font-size="14.00">U</text>
</g>
<!-- 4&#45;&gt;5 -->
<g id="edge69" class="edge">
<title>4&#45;&gt;5</title>
<path fill="none" stroke="black" d="M972.21,-1782.97C986.22,-1767.81 1011.55,-1743.87 1039.28,-1734.25 1074.37,-1722.06 1112.77,-1742.73 1139.87,-1763.42"/>
<polygon fill="black" stroke="black" points="1137.9,-1766.32 1147.9,-1769.8 1142.25,-1760.84 1137.9,-1766.32"/>
<text text-anchor="middle" x="1046.78" y="-1738.05" font-family="Times,serif" font-size="14.00">H</text>
</g>
<!-- 4&#45;&gt;5 -->
<g id="edge73" class="edge">
<title>4&#45;&gt;5</title>
<path fill="none" stroke="black" d="M968.33,-1779.91C982.37,-1752.15 1014.7,-1699.9 1054.28,-1712.25 1086.47,-1722.29 1117.65,-1744.18 1140.36,-1763.09"/>
<polygon fill="black" stroke="black" points="1138.15,-1765.81 1148.03,-1769.63 1142.69,-1760.48 1138.15,-1765.81"/>
<text text-anchor="middle" x="1046.78" y="-1716.05" font-family="Times,serif" font-size="14.00">n</text>
</g>
<!-- 4&#45;&gt;5 -->
<g id="edge74" class="edge">
<title>4&#45;&gt;5</title>
<path fill="none" stroke="black" d="M966.21,-1779.41C978.14,-1745.69 1009.21,-1674.47 1054.28,-1691.25 1090.11,-1704.58 1122.43,-1733.77 1144.7,-1757.99"/>
<polygon fill="black" stroke="black" points="1142.29,-1760.55 1151.58,-1765.66 1147.51,-1755.88 1142.29,-1760.55"/>
<text text-anchor="middle" x="1046.78" y="-1695.05" font-family="Times,serif" font-size="14.00">m</text>
</g>
<!-- 4&#45;&gt;5 -->
<g id="edge78" class="edge">
<title>4&#45;&gt;5</title>
<path fill="none" stroke="black" d="M965.44,-1779.15C974.33,-1750.34 996.71,-1692.97 1039.28,-1669.25 1086.59,-1642.87 1130.37,-1705.24 1155.03,-1751.61"/>
<polygon fill="black" stroke="black" points="1151.99,-1753.37 1159.7,-1760.64 1158.21,-1750.15 1151.99,-1753.37"/>
<text text-anchor="middle" x="1046.78" y="-1673.05" font-family="Times,serif" font-size="14.00">I</text>
</g>
<!-- 4&#45;&gt;5 -->
<g id="edge79" class="edge">
<title>4&#45;&gt;5</title>
<path fill="none" stroke="black" d="M963.81,-1778.58C970.56,-1745.31 990.32,-1674.06 1039.28,-1644.25 1092.11,-1612.07 1136.31,-1694.29 1159.12,-1749.96"/>
<polygon fill="black" stroke="black" points="1155.9,-1751.34 1162.86,-1759.33 1162.4,-1748.75 1155.9,-1751.34"/>
<text text-anchor="middle" x="1046.78" y="-1648.05" font-family="Times,serif" font-size="14.00">M</text>
</g>
<!-- 4&#45;&gt;5 -->
<g id="edge87" class="edge">
<title>4&#45;&gt;5</title>
<path fill="none" stroke="black" d="M962.48,-1778.41C967.12,-1741.14 983.62,-1655.44 1039.28,-1619.25 1097.99,-1581.06 1141.76,-1684.69 1162.48,-1749.16"/>
<polygon fill="black" stroke="black" points="1159.15,-1750.26 1165.49,-1758.75 1165.83,-1748.16 1159.15,-1750.26"/>
<text text-anchor="middle" x="1046.78" y="-1623.05" font-family="Times,serif" font-size="14.00">c</text>
</g>
<!-- 4&#45;&gt;5 -->
<g id="edge88" class="edge">
<title>4&#45;&gt;5</title>
<path fill="none" stroke="black" d="M961.42,-1778.11C963.97,-1736.84 976.63,-1636.19 1039.28,-1593.25 1104.18,-1548.75 1146.64,-1675.01 1165.14,-1748.15"/>
<polygon fill="black" stroke="black" points="1161.8,-1749.22 1167.59,-1758.09 1168.6,-1747.55 1161.8,-1749.22"/>
<text text-anchor="middle" x="1046.78" y="-1597.05" font-family="Times,serif" font-size="14.00">V</text>
</g>
<!-- 4&#45;&gt;5 -->
<g id="edge89" class="edge">
<title>4&#45;&gt;5</title>
<path fill="none" stroke="black" d="M960.57,-1777.98C961.18,-1733.17 969.75,-1617.84 1039.28,-1568.25 1110.41,-1517.5 1151.01,-1666.64 1167.31,-1747.68"/>
<polygon fill="black" stroke="black" points="1163.91,-1748.54 1169.27,-1757.68 1170.78,-1747.19 1163.91,-1748.54"/>
<text text-anchor="middle" x="1046.78" y="-1572.05" font-family="Times,serif" font-size="14.00">x</text>
</g>
<!-- 4&#45;&gt;5 -->
<g id="edge92" class="edge">
<title>4&#45;&gt;5</title>
<path fill="none" stroke="black" d="M963.51,-1778.51C972.04,-1725.69 1000,-1571.22 1039.28,-1542.25 1117.07,-1484.86 1155.17,-1658.57 1169.2,-1747.39"/>
<polygon fill="black" stroke="black" points="1165.77,-1748.17 1170.75,-1757.52 1172.69,-1747.11 1165.77,-1748.17"/>
<text text-anchor="middle" x="1046.78" y="-1546.05" font-family="Times,serif" font-size="14.00">4</text>
</g>
<!-- 4&#45;&gt;5 -->
<g id="edge93" class="edge">
<title>4&#45;&gt;5</title>
<path fill="none" stroke="black" d="M962.99,-1778.29C970.38,-1721.54 996.21,-1547.93 1039.28,-1515.25 1124.1,-1450.87 1159.11,-1650.54 1170.81,-1747.09"/>
<polygon fill="black" stroke="black" points="1167.36,-1747.7 1172,-1757.22 1174.31,-1746.88 1167.36,-1747.7"/>
<text text-anchor="middle" x="1046.78" y="-1519.05" font-family="Times,serif" font-size="14.00">Z</text>
</g>
<!-- 4&#45;&gt;5 -->
<g id="edge94" class="edge">
<title>4&#45;&gt;5</title>
<path fill="none" stroke="black" d="M962.52,-1778.3C968.8,-1718.04 992.33,-1524.73 1039.28,-1488.25 1131.26,-1416.77 1162.74,-1642.92 1172.18,-1746.87"/>
<polygon fill="black" stroke="black" points="1168.72,-1747.47 1173.08,-1757.13 1175.69,-1746.86 1168.72,-1747.47"/>
<text text-anchor="middle" x="1046.78" y="-1492.05" font-family="Times,serif" font-size="14.00">F</text>
</g>
<!-- 4&#45;&gt;5 -->
<g id="edge97" class="edge">
<title>4&#45;&gt;5</title>
<path fill="none" stroke="black" d="M962.14,-1778.04C967.36,-1713.98 988.36,-1500.64 1039.28,-1460.25 1138.79,-1381.3 1166.23,-1635.45 1173.39,-1746.72"/>
<polygon fill="black" stroke="black" points="1169.92,-1747.26 1174.02,-1757.03 1176.91,-1746.84 1169.92,-1747.26"/>
<text text-anchor="middle" x="1046.78" y="-1464.05" font-family="Times,serif" font-size="14.00">0</text>
</g>
<!-- 4&#45;&gt;5 -->
<g id="edge100" class="edge">
<title>4&#45;&gt;5</title>
<path fill="none" stroke="black" d="M961.79,-1777.91C965.95,-1710.18 984.19,-1475.74 1039.28,-1431.25 1146.69,-1344.48 1169.59,-1628.04 1174.47,-1746.61"/>
<polygon fill="black" stroke="black" points="1170.98,-1747.02 1174.86,-1756.88 1177.97,-1746.75 1170.98,-1747.02"/>
<text text-anchor="middle" x="1046.78" y="-1435.05" font-family="Times,serif" font-size="14.00">9</text>
</g>
<!-- 4&#45;&gt;5 -->
<g id="edge101" class="edge">
<title>4&#45;&gt;5</title>
<path fill="none" stroke="black" d="M961.51,-1778.13C964.77,-1707.81 980.49,-1454.37 1039.28,-1406.25 1153.73,-1312.54 1172.36,-1622.82 1175.28,-1747.08"/>
<polygon fill="black" stroke="black" points="1171.79,-1747.18 1175.49,-1757.1 1178.78,-1747.03 1171.79,-1747.18"/>
<text text-anchor="middle" x="1046.78" y="-1410.05" font-family="Times,serif" font-size="14.00">C</text>
</g>
<!-- 4&#45;&gt;5 -->
<g id="edge103" class="edge">
<title>4&#45;&gt;5</title>
<path fill="none" stroke="black" d="M961.27,-1777.95C963.68,-1704.44 976.75,-1432.07 1039.28,-1380.25 1160.92,-1279.41 1175.02,-1616.61 1176.02,-1746.97"/>
<polygon fill="black" stroke="black" points="1172.52,-1747.11 1176.07,-1757.09 1179.52,-1747.07 1172.52,-1747.11"/>
<text text-anchor="middle" x="1046.78" y="-1384.05" font-family="Times,serif" font-size="14.00">s</text>
</g>
<!-- 4&#45;&gt;5 -->
<g id="edge104" class="edge">
<title>4&#45;&gt;5</title>
<path fill="none" stroke="black" d="M961.05,-1778.12C962.61,-1702.05 972.9,-1409.87 1039.28,-1354.25 1168.11,-1246.28 1177.52,-1610.29 1176.67,-1746.7"/>
<polygon fill="black" stroke="black" points="1173.17,-1746.86 1176.58,-1756.89 1180.17,-1746.92 1173.17,-1746.86"/>
<text text-anchor="middle" x="1046.78" y="-1358.05" font-family="Times,serif" font-size="14.00">_</text>
</g>
<!-- 4&#45;&gt;5 -->
<g id="edge105" class="edge">
<title>4&#45;&gt;5</title>
<path fill="none" stroke="black" d="M960.85,-1778.11C961.58,-1699.16 968.94,-1386.79 1039.28,-1327.25 1106.63,-1270.23 1154.68,-1615.87 1170.31,-1747.17"/>
<polygon fill="black" stroke="black" points="1166.86,-1747.83 1171.5,-1757.35 1173.81,-1747.01 1166.86,-1747.83"/>
<text text-anchor="middle" x="1046.78" y="-1331.05" font-family="Times,serif" font-size="14.00">B</text>
</g>
<!-- 4&#45;&gt;5 -->
<g id="edge109" class="edge">
<title>4&#45;&gt;5</title>
<path fill="none" stroke="black" d="M960.68,-1778.22C960.64,-1696.79 965.08,-1364.6 1039.28,-1301.25 1110.3,-1240.6 1156.51,-1610.87 1170.94,-1747.26"/>
<polygon fill="black" stroke="black" points="1167.48,-1747.85 1172,-1757.43 1174.44,-1747.12 1167.48,-1747.85"/>
<text text-anchor="middle" x="1046.78" y="-1305.05" font-family="Times,serif" font-size="14.00">g</text>
</g>
<!-- 4&#45;&gt;5 -->
<g id="edge111" class="edge">
<title>4&#45;&gt;5</title>
<path fill="none" stroke="black" d="M960.53,-1778.16C959.78,-1694.16 961.42,-1343.23 1039.28,-1276.25 1113.83,-1212.11 1158.13,-1605.9 1171.47,-1747.19"/>
<polygon fill="black" stroke="black" points="1168.01,-1747.68 1172.42,-1757.31 1174.97,-1747.03 1168.01,-1747.68"/>
<text text-anchor="middle" x="1046.78" y="-1280.05" font-family="Times,serif" font-size="14.00">8</text>
</g>
<!-- 4&#45;&gt;5 -->
<g id="edge112" class="edge">
<title>4&#45;&gt;5</title>
<path fill="none" stroke="black" d="M960.38,-1778.14C958.93,-1691.56 957.58,-1321.03 1039.28,-1250.25 1117.52,-1182.45 1159.76,-1601.03 1171.99,-1747.21"/>
<polygon fill="black" stroke="black" points="1168.51,-1747.58 1172.82,-1757.26 1175.48,-1747 1168.51,-1747.58"/>
<text text-anchor="middle" x="1046.78" y="-1254.05" font-family="Times,serif" font-size="14.00">G</text>
</g>
<!-- 4&#45;&gt;5 -->
<g id="edge113" class="edge">
<title>4&#45;&gt;5</title>
<path fill="none" stroke="black" d="M961.86,-1778.26C967.65,-1685.25 996.27,-1261.76 1039.28,-1224.25 1121.09,-1152.9 1161.17,-1594.75 1172.4,-1746.45"/>
<polygon fill="black" stroke="black" points="1168.94,-1747.14 1173.16,-1756.86 1175.92,-1746.63 1168.94,-1747.14"/>
<text text-anchor="middle" x="1046.78" y="-1228.05" font-family="Times,serif" font-size="14.00">k</text>
</g>
<!-- 4&#45;&gt;5 -->
<g id="edge114" class="edge">
<title>4&#45;&gt;5</title>
<path fill="none" stroke="black" d="M961.76,-1778.08C967.14,-1682.17 994.36,-1237.65 1039.28,-1198.25 1124.87,-1123.16 1162.71,-1590.75 1172.85,-1746.81"/>
<polygon fill="black" stroke="black" points="1169.38,-1747.31 1173.51,-1757.07 1176.36,-1746.86 1169.38,-1747.31"/>
<text text-anchor="middle" x="1046.78" y="-1202.05" font-family="Times,serif" font-size="14.00">y</text>
</g>
<!-- 4&#45;&gt;5 -->
<g id="edge115" class="edge">
<title>4&#45;&gt;5</title>
<path fill="none" stroke="black" d="M961.65,-1778.24C966.56,-1680.1 992.33,-1212.67 1039.28,-1171.25 1128.77,-1092.29 1164.2,-1586.35 1173.27,-1747"/>
<polygon fill="black" stroke="black" points="1169.78,-1747.3 1173.83,-1757.09 1176.77,-1746.91 1169.78,-1747.3"/>
<text text-anchor="middle" x="1046.78" y="-1175.05" font-family="Times,serif" font-size="14.00">E</text>
</g>
<!-- 4&#45;&gt;5 -->
<g id="edge116" class="edge">
<title>4&#45;&gt;5</title>
<path fill="none" stroke="black" d="M961.55,-1778.13C966.06,-1677.23 990.34,-1187.65 1039.28,-1144.25 1132.62,-1061.46 1165.58,-1581.37 1173.64,-1746.85"/>
<polygon fill="black" stroke="black" points="1170.16,-1747.41 1174.13,-1757.23 1177.15,-1747.07 1170.16,-1747.41"/>
<text text-anchor="middle" x="1046.78" y="-1148.05" font-family="Times,serif" font-size="14.00">5</text>
</g>
<!-- 4&#45;&gt;5 -->
<g id="edge117" class="edge">
<title>4&#45;&gt;5</title>
<path fill="none" stroke="black" d="M961.47,-1778.06C965.57,-1674.55 988.33,-1162.64 1039.28,-1117.25 1136.55,-1030.57 1166.95,-1577.23 1173.99,-1747.05"/>
<polygon fill="black" stroke="black" points="1170.5,-1747.37 1174.4,-1757.22 1177.5,-1747.08 1170.5,-1747.37"/>
<text text-anchor="middle" x="1046.78" y="-1121.05" font-family="Times,serif" font-size="14.00">R</text>
</g>
<!-- 4&#45;&gt;5 -->
<g id="edge118" class="edge">
<title>4&#45;&gt;5</title>
<path fill="none" stroke="black" d="M961.38,-1778.01C965.07,-1671.87 986.25,-1136.71 1039.28,-1089.25 1140.54,-998.6 1168.26,-1571.96 1174.31,-1746.77"/>
<polygon fill="black" stroke="black" points="1170.82,-1747.1 1174.66,-1756.98 1177.82,-1746.86 1170.82,-1747.1"/>
<text text-anchor="middle" x="1046.78" y="-1093.05" font-family="Times,serif" font-size="14.00">A</text>
</g>
<!-- 4&#45;&gt;5 -->
<g id="edge119" class="edge">
<title>4&#45;&gt;5</title>
<path fill="none" stroke="black" d="M961.3,-1778C964.6,-1669.38 984.16,-1110.79 1039.28,-1061.25 1144.62,-966.55 1169.56,-1567.68 1174.62,-1746.9"/>
<polygon fill="black" stroke="black" points="1171.13,-1747.2 1174.9,-1757.1 1178.13,-1747.01 1171.13,-1747.2"/>
<text text-anchor="middle" x="1046.78" y="-1065.05" font-family="Times,serif" font-size="14.00">h</text>
</g>
<!-- 4&#45;&gt;5 -->
<g id="edge120" class="edge">
<title>4&#45;&gt;5</title>
<path fill="none" stroke="black" d="M961.22,-1778.04C964.13,-1667.07 982.06,-1084.88 1039.28,-1033.25 1148.67,-934.53 1170.79,-1563.09 1174.9,-1746.85"/>
<polygon fill="black" stroke="black" points="1171.41,-1747.11 1175.12,-1757.04 1178.41,-1746.96 1171.41,-1747.11"/>
<text text-anchor="middle" x="1046.78" y="-1037.05" font-family="Times,serif" font-size="14.00">7</text>
</g>
<!-- 4&#45;&gt;5 -->
<g id="edge121" class="edge">
<title>4&#45;&gt;5</title>
<path fill="none" stroke="black" d="M961.15,-1778.09C963.67,-1664.79 979.88,-1058.05 1039.28,-1004.25 1152.89,-901.34 1172.03,-1558.51 1175.18,-1746.84"/>
<polygon fill="black" stroke="black" points="1171.68,-1747.06 1175.34,-1757.01 1178.68,-1746.95 1171.68,-1747.06"/>
<text text-anchor="middle" x="1046.78" y="-1008.05" font-family="Times,serif" font-size="14.00">2</text>
</g>
</g>
</svg>
