<?xml version="1.0" encoding="UTF-8"?>
<svg version="1.1" xmlns="http://www.w3.org/2000/svg" width="1280" height="640">
<path d="M0 0 C422.4 0 844.8 0 1280 0 C1280 211.2 1280 422.4 1280 640 C857.6 640 435.2 640 0 640 C0 428.8 0 217.6 0 0 Z " fill="#FFFFFF" transform="translate(0,0)"/>
<path d="M0 0 C22.44 0 44.88 0 68 0 C68 98.67 68 197.34 68 299 C123.44 299 178.88 299 236 299 C236 320.45 236 341.9 236 364 C158.12 364 80.24 364 0 364 C0 243.88 0 123.76 0 0 Z " fill="#64000F" transform="translate(529,138)"/>
<path d="M0 0 C10.56 0 21.12 0 32 0 C32 12.54 32 25.08 32 38 C25.4 38 18.8 38 12 38 C12 46.91 12 55.82 12 65 C8.04 65 4.08 65 0 65 C0 43.55 0 22.1 0 0 Z " fill="#64000F" transform="translate(722,362)"/>
<path d="M0 0 C10.56 0 21.12 0 32 0 C32 3.96 32 7.92 32 12 C25.4 12 18.8 12 12 12 C12 16.62 12 21.24 12 26 C18.6 26 25.2 26 32 26 C32 29.96 32 33.92 32 38 C25.4 38 18.8 38 12 38 C12 42.95 12 47.9 12 53 C18.6 53 25.2 53 32 53 C32 56.96 32 60.92 32 65 C21.44 65 10.88 65 0 65 C0 43.55 0 22.1 0 0 Z " fill="#64000F" transform="translate(683,362)"/>
<path d="M0 0 C10.56 0 21.12 0 32 0 C32 3.96 32 7.92 32 12 C25.4 12 18.8 12 12 12 C12 16.62 12 21.24 12 26 C18.6 26 25.2 26 32 26 C32 29.96 32 33.92 32 38 C25.4 38 18.8 38 12 38 C12 42.95 12 47.9 12 53 C18.6 53 25.2 53 32 53 C32 56.96 32 60.92 32 65 C21.44 65 10.88 65 0 65 C0 43.55 0 22.1 0 0 Z " fill="#64000F" transform="translate(607,362)"/>
<path d="M0 0 C0.99 0 1.98 0 3 0 C3 98.67 3 197.34 3 299 C2.01 299 1.02 299 0 299 C0 200.33 0 101.66 0 0 Z " fill="#000000" transform="translate(594,138)"/>
<path d="M0 0 C0.99 0 1.98 0 3 0 C3 21.45 3 42.9 3 65 C-74.88 65 -152.76 65 -233 65 C-233 64.01 -233 63.02 -233 62 C-156.11 62 -79.22 62 0 62 C0 41.54 0 21.08 0 0 Z " fill="#000000" transform="translate(762,437)"/>
<path d="M0 0 C3.96 0 7.92 0 12 0 C12 7.92 12 15.84 12 24 C8.04 24 4.08 24 0 24 C0 16.08 0 8.16 0 0 Z " fill="#64000F" transform="translate(742,403)"/>
<path d="M0 0 C0.99 0 1.98 0 3 0 C3 12.54 3 25.08 3 38 C-3.6 38 -10.2 38 -17 38 C-17 46.91 -17 55.82 -17 65 C-20.96 65 -24.92 65 -29 65 C-29 64.01 -29 63.02 -29 62 C-26.03 62 -23.06 62 -20 62 C-20 53.09 -20 44.18 -20 35 C-13.4 35 -6.8 35 0 35 C0 23.45 0 11.9 0 0 Z " fill="#000000" transform="translate(751,362)"/>
<path d="M0 0 C3.96 0 7.92 0 12 0 C12 3.96 12 7.92 12 12 C8.04 12 4.08 12 0 12 C0 8.04 0 4.08 0 0 Z " fill="#64000F" transform="translate(664,415)"/>
<path d="M0 0 C3.96 0 7.92 0 12 0 C12 3.96 12 7.92 12 12 C8.04 12 4.08 12 0 12 C0 8.04 0 4.08 0 0 Z " fill="#64000F" transform="translate(646,415)"/>
<path d="M0 0 C3.96 0 7.92 0 12 0 C12 3.96 12 7.92 12 12 C8.04 12 4.08 12 0 12 C0 8.04 0 4.08 0 0 Z " fill="#64000F" transform="translate(655,388)"/>
<path d="M0 0 C3.96 0 7.92 0 12 0 C12 3.96 12 7.92 12 12 C8.04 12 4.08 12 0 12 C0 8.04 0 4.08 0 0 Z " fill="#64000F" transform="translate(664,362)"/>
<path d="M0 0 C3.96 0 7.92 0 12 0 C12 3.96 12 7.92 12 12 C8.04 12 4.08 12 0 12 C0 8.04 0 4.08 0 0 Z " fill="#64000F" transform="translate(646,362)"/>
<path d="M0 0 C0.99 0 1.98 0 3 0 C3 3.96 3 7.92 3 12 C-3.6 12 -10.2 12 -17 12 C-17 16.95 -17 21.9 -17 27 C-17.99 27 -18.98 27 -20 27 C-20 21.06 -20 15.12 -20 9 C-13.4 9 -6.8 9 0 9 C0 6.03 0 3.06 0 0 Z " fill="#000000" transform="translate(712,388)"/>
<path d="M0 0 C0.99 0 1.98 0 3 0 C3 3.96 3 7.92 3 12 C-3.6 12 -10.2 12 -17 12 C-17 16.95 -17 21.9 -17 27 C-17.99 27 -18.98 27 -20 27 C-20 21.06 -20 15.12 -20 9 C-13.4 9 -6.8 9 0 9 C0 6.03 0 3.06 0 0 Z " fill="#000000" transform="translate(636,388)"/>
<path d="M0 0 C0.99 0 1.98 0 3 0 C3 3.96 3 7.92 3 12 C-3.6 12 -10.2 12 -17 12 C-17 16.62 -17 21.24 -17 26 C-17.99 26 -18.98 26 -20 26 C-20 20.39 -20 14.78 -20 9 C-13.4 9 -6.8 9 0 9 C0 6.03 0 3.06 0 0 Z " fill="#000000" transform="translate(712,362)"/>
<path d="M0 0 C0.99 0 1.98 0 3 0 C3 3.96 3 7.92 3 12 C-3.6 12 -10.2 12 -17 12 C-17 16.62 -17 21.24 -17 26 C-17.99 26 -18.98 26 -20 26 C-20 20.39 -20 14.78 -20 9 C-13.4 9 -6.8 9 0 9 C0 6.03 0 3.06 0 0 Z " fill="#000000" transform="translate(636,362)"/>
<path d="M0 0 C0.99 0 1.98 0 3 0 C3 3.96 3 7.92 3 12 C-7.56 12 -18.12 12 -29 12 C-29 11.01 -29 10.02 -29 9 C-19.43 9 -9.86 9 0 9 C0 6.03 0 3.06 0 0 Z " fill="#000000" transform="translate(712,415)"/>
<path d="M0 0 C0.99 0 1.98 0 3 0 C3 3.96 3 7.92 3 12 C-7.56 12 -18.12 12 -29 12 C-29 11.01 -29 10.02 -29 9 C-19.43 9 -9.86 9 0 9 C0 6.03 0 3.06 0 0 Z " fill="#000000" transform="translate(636,415)"/>
<path d="M0 0 C2.64 0 5.28 0 8 0 C8 4.62 8 9.24 8 14 C5.36 14 2.72 14 0 14 C0 9.38 0 4.76 0 0 Z " fill="#FFFFFF" transform="translate(734,374)"/>
<path d="M0 0 C0.99 0 1.98 0 3 0 C3 7.92 3 15.84 3 24 C-0.96 24 -4.92 24 -9 24 C-9 23.01 -9 22.02 -9 21 C-6.03 21 -3.06 21 0 21 C0 14.07 0 7.14 0 0 Z " fill="#000000" transform="translate(751,403)"/>
<path d="M0 0 C3.63 0 7.26 0 11 0 C11 0.99 11 1.98 11 3 C8.36 3 5.72 3 3 3 C3 7.62 3 12.24 3 17 C2.01 17 1.02 17 0 17 C0 11.39 0 5.78 0 0 Z " fill="#000000" transform="translate(731,371)"/>
<path d="M0 0 C0.99 0 1.98 0 3 0 C3 3.96 3 7.92 3 12 C-0.96 12 -4.92 12 -9 12 C-9 11.01 -9 10.02 -9 9 C-6.03 9 -3.06 9 0 9 C0 6.03 0 3.06 0 0 Z " fill="#000000" transform="translate(673,415)"/>
<path d="M0 0 C0.99 0 1.98 0 3 0 C3 3.96 3 7.92 3 12 C-0.96 12 -4.92 12 -9 12 C-9 11.01 -9 10.02 -9 9 C-6.03 9 -3.06 9 0 9 C0 6.03 0 3.06 0 0 Z " fill="#000000" transform="translate(655,415)"/>
<path d="M0 0 C0.99 0 1.98 0 3 0 C3 3.96 3 7.92 3 12 C-0.96 12 -4.92 12 -9 12 C-9 11.01 -9 10.02 -9 9 C-6.03 9 -3.06 9 0 9 C0 6.03 0 3.06 0 0 Z " fill="#000000" transform="translate(664,388)"/>
<path d="M0 0 C0.99 0 1.98 0 3 0 C3 3.96 3 7.92 3 12 C-0.96 12 -4.92 12 -9 12 C-9 11.01 -9 10.02 -9 9 C-6.03 9 -3.06 9 0 9 C0 6.03 0 3.06 0 0 Z " fill="#000000" transform="translate(673,362)"/>
<path d="M0 0 C0.99 0 1.98 0 3 0 C3 3.96 3 7.92 3 12 C-0.96 12 -4.92 12 -9 12 C-9 11.01 -9 10.02 -9 9 C-6.03 9 -3.06 9 0 9 C0 6.03 0 3.06 0 0 Z " fill="#000000" transform="translate(655,362)"/>
</svg>
